<svg width="94" height="82" viewBox="0 0 94 82" fill="none" xmlns="http://www.w3.org/2000/svg">
<path d="M59.8314 9.04818C60.0369 8.46121 60.0549 7.82488 59.8829 7.22723C59.7109 6.62958 59.3574 6.10015 58.8714 5.71218L57.8034 4.93818C54.0556 2.4591 49.7988 0.85357 45.3474 0.240185C37.2894 -0.827815 27.0234 1.37418 17.0394 12.7982H10.7154C10.3207 12.7983 9.92996 12.8762 9.56549 13.0276C9.20102 13.1789 8.86999 13.4007 8.59136 13.6802L0.875364 21.4022C0.314784 21.9645 0 22.7262 0 23.5202C0 24.3142 0.314784 25.0758 0.875364 25.6382L16.3014 41.1122C16.58 41.3916 16.9111 41.6132 17.2756 41.7645C17.64 41.9157 18.0308 41.9935 18.4254 41.9935C18.82 41.9935 19.2107 41.9157 19.5752 41.7645C19.9396 41.6132 20.2707 41.3916 20.5494 41.1122L28.2654 33.3722C28.8262 32.81 29.1412 32.0483 29.1414 31.2542V27.4202L79.4634 80.6582C79.7196 81.0059 80.0479 81.2941 80.4257 81.5033C80.8036 81.7124 81.2222 81.8375 81.6529 81.87C82.0836 81.9024 82.5162 81.8415 82.9212 81.6914C83.3261 81.5413 83.6939 81.3055 83.9994 81.0002L92.9994 72.0002C93.5434 71.4557 93.8574 70.723 93.8764 69.9536C93.8954 69.1841 93.6179 68.4368 93.1014 67.8662L38.3274 16.0862C42.8094 13.3502 48.9594 11.0522 56.9994 11.0522C57.6208 11.0526 58.2271 10.8601 58.7344 10.5011C59.2417 10.1421 59.625 9.63441 59.8314 9.04818Z" fill="black"/>
</svg>
