<svg width="78" height="84" viewBox="0 0 78 84" fill="none" xmlns="http://www.w3.org/2000/svg">
<path d="M40.5226 26.4946L36.1063 30.5994L39.7775 35.9017L11.5299 65.4035L5.93361 67.1876L0.000189056 78.9678L2.8556 83.0918L13.684 78.3812L16.4687 71.9198L44.2646 42.3822L47.9358 47.6844L51.9442 42.9905C51.9442 42.9905 48.5933 39.3841 53.0534 34.7259C55.5313 32.138 58.8823 35.7444 66.3159 27.9808L76.7229 17.1117C76.7229 17.1117 79.8716 11.7928 74.9767 4.72313C70.0817 -2.34652 65.3013 0.615811 65.3013 0.615811L54.8942 11.4849C47.9562 18.731 49.8205 23.8901 47.8382 25.9604C43.378 30.6186 40.5226 26.4946 40.5226 26.4946ZM54.3514 29.8172L51.496 25.6933L70.3277 6.02539L73.1831 10.1494L54.3514 29.8172Z" fill="black"/>
</svg>
