<svg width="24" height="19" viewBox="0 0 24 19" fill="none" xmlns="http://www.w3.org/2000/svg">
<path d="M12 3.01084L11.3972 3.53874C11.4753 3.61243 11.5689 3.67104 11.6725 3.71107C11.7761 3.75111 11.8875 3.77174 12 3.77174C12.1125 3.77174 12.2239 3.75111 12.3275 3.71107C12.4311 3.67104 12.5247 3.61243 12.6028 3.53874L12 3.01084ZM9.1267 16.0275C7.43442 14.8144 5.58474 13.6297 4.11684 12.1272C2.67907 10.6532 1.67442 8.93444 1.67442 6.70307H0C0 9.40955 1.23907 11.4744 2.86549 13.1383C4.46177 14.7728 6.49786 16.0824 8.08967 17.2234L9.1267 16.0275ZM1.67442 6.70307C1.67442 4.52042 3.0307 2.68903 4.88261 1.9185C6.68205 1.17031 9.09991 1.36827 11.3972 3.53874L12.6028 2.48396C9.87907 -0.0915631 6.7133 -0.516925 4.18605 0.533791C1.7146 1.56217 0 3.94989 0 6.70307H1.67442ZM8.08967 17.2234C8.66233 17.6336 9.27628 18.0701 9.89805 18.401C10.5198 18.732 11.2298 19 12 19V17.4772C11.654 17.4772 11.2476 17.3554 10.7431 17.0864C10.2374 16.8184 9.71386 16.4488 9.1267 16.0275L8.08967 17.2234ZM15.9103 17.2234C17.5021 16.0813 19.5382 14.7738 21.1345 13.1383C22.7609 11.4734 24 9.40955 24 6.70307H22.3256C22.3256 8.93444 21.3209 10.6532 19.8832 12.1272C18.4153 13.6297 16.5656 14.8144 14.8733 16.0275L15.9103 17.2234ZM24 6.70307C24 3.94989 22.2865 1.56217 19.814 0.533791C17.2867 -0.516925 14.1232 -0.0915631 11.3972 2.48295L12.6028 3.53874C14.9001 1.36929 17.318 1.17031 19.1174 1.9185C20.9693 2.68903 22.3256 4.51941 22.3256 6.70307H24ZM14.8733 16.0275C14.2861 16.4488 13.7626 16.8184 13.2569 17.0864C12.7513 17.3544 12.346 17.4772 12 17.4772V19C12.7702 19 13.4802 18.731 14.102 18.401C14.7248 18.0701 15.3377 17.6336 15.9103 17.2234L14.8733 16.0275Z" fill="white"/>
</svg>
