<svg width="18" height="11" viewBox="0 0 18 11" fill="none" xmlns="http://www.w3.org/2000/svg">
<path fill-rule="evenodd" clip-rule="evenodd" d="M17.4478 4.73841C17.5897 4.84523 17.6696 4.9901 17.6698 5.14121C17.67 5.29232 17.5905 5.43731 17.4488 5.54433L11.3962 10.1106C11.3269 10.1667 11.2434 10.2117 11.1505 10.2429C11.0577 10.2741 10.9574 10.291 10.8557 10.2924C10.754 10.2938 10.653 10.2798 10.5587 10.2512C10.4644 10.2226 10.3786 10.18 10.3067 10.1259C10.2347 10.0718 10.1779 10.0073 10.1397 9.93634C10.1015 9.86537 10.0827 9.78933 10.0844 9.71276C10.0861 9.6362 10.1083 9.56067 10.1496 9.4907C10.1909 9.42072 10.2505 9.35772 10.3248 9.30546L15.0862 5.71334L0.758036 5.7239C0.557187 5.72404 0.364483 5.66411 0.222326 5.55727C0.0801684 5.45044 0.000197286 5.30546 4.51643e-06 5.15423C-0.000188253 5.003 0.0794132 4.8579 0.221298 4.75086C0.363183 4.64381 0.555733 4.58359 0.756583 4.58345L15.0848 4.57289L10.3142 0.987788C10.2398 0.935639 10.18 0.872729 10.1385 0.802813C10.097 0.732896 10.0747 0.657405 10.0728 0.580842C10.0709 0.504279 10.0895 0.428213 10.1275 0.357182C10.1655 0.286151 10.2221 0.22161 10.294 0.167409C10.3658 0.113209 10.4514 0.0704589 10.5457 0.0417102C10.6399 0.0129614 10.7409 -0.00119706 10.8426 7.89028e-05C10.9443 0.00135487 11.0446 0.0180391 11.1375 0.0491369C11.2305 0.0802346 11.3141 0.125108 11.3835 0.181081L17.4478 4.73841Z" fill="white"/>
</svg>
