<svg width="17" height="18" viewBox="0 0 17 18" fill="none" xmlns="http://www.w3.org/2000/svg">
<path d="M8.79219 15.3C9.00469 15.285 9.18637 15.2136 9.33725 15.0858C9.48812 14.958 9.56321 14.8044 9.5625 14.625C9.5625 14.415 9.48281 14.2464 9.32344 14.1192C9.16406 13.992 8.96042 13.9356 8.7125 13.95C7.98646 13.995 7.21615 13.8264 6.40156 13.4442C5.58698 13.062 5.07344 12.3681 4.86094 11.3625C4.82552 11.1975 4.73273 11.0625 4.58256 10.9575C4.4324 10.8525 4.25956 10.8 4.06406 10.8C3.81615 10.8 3.6125 10.8789 3.45312 11.0367C3.29375 11.1945 3.24062 11.3781 3.29375 11.5875C3.59479 12.9525 4.30313 13.9275 5.41875 14.5125C6.53438 15.0975 7.65885 15.36 8.79219 15.3ZM8.5 18C6.07396 18 4.05096 17.295 2.431 15.885C0.811042 14.475 0.000708333 12.72 0 10.62C0 9.12 0.704083 7.4889 2.11225 5.7267C3.52042 3.9645 5.64967 2.0556 8.5 0C11.351 2.055 13.4806 3.9639 14.8888 5.7267C16.297 7.4895 17.0007 9.1206 17 10.62C17 12.72 16.19 14.475 14.5701 15.885C12.9501 17.295 10.9268 18 8.5 18Z" fill="#AC312A"/>
</svg>
