<svg width="89" height="64" viewBox="0 0 89 64" fill="none" xmlns="http://www.w3.org/2000/svg">
<path d="M10.1013 40.8604C11.4952 42.3403 12.8792 43.8104 14.1821 45.6787V49.1671H32.4549V45.6787C32.128 42.9647 31.5527 38.0751 31.5011 36.7156C31.4322 34.803 28.8657 31.3171 28.8657 31.3171L20.9868 21.3855C20.9868 21.3855 18.7571 19.0304 17.4812 16.4196C16.2029 13.8064 13.4889 17.0932 13.13 19.4434C12.7661 21.7935 13.4545 23.0325 13.4545 23.0325L17.9532 31.976C17.9532 31.976 12.7366 24.8296 11.1166 21.9583C10.2955 20.5029 10.0669 17.4202 9.80875 13.976C9.56045 10.6204 9.28512 6.92063 8.41241 4.04438C6.64241 -1.78187 1.52416 -0.324078 0.636704 2.28175C-0.248296 4.88513 -0.0491706 22.091 0.272871 24.9599C0.526079 27.2068 1.88062 29.4045 3.40725 31.8825C3.83008 32.5709 4.26766 33.2789 4.69787 34.0139C6.40887 36.9443 8.26246 38.9134 10.1013 40.8604ZM74.3228 45.6787C75.6257 43.8104 77.0098 42.3403 78.4036 40.8604C80.2425 38.9134 82.096 36.9443 83.8095 34.0139C84.2373 33.2764 84.6748 32.5709 85.0977 31.885C86.6243 29.407 87.9788 27.2068 88.232 24.9599C88.5541 22.091 88.7557 4.88513 87.8682 2.28175C86.9808 -0.324078 81.8625 -1.78187 80.0925 4.04684C79.2223 6.92309 78.9469 10.6204 78.6962 13.976C78.438 17.4202 78.2094 20.5029 77.3883 21.9583C75.7683 24.832 70.5493 31.976 70.5493 31.976L75.0505 23.0325C75.0505 23.0325 75.7388 21.7935 75.3774 19.4434C75.016 17.0932 72.302 13.8064 71.0262 16.4196C69.7478 19.0304 67.5181 21.3855 67.5181 21.3855L59.6392 31.3171C59.6392 31.3171 57.0727 34.803 57.0038 36.7156C56.9547 38.0751 56.377 42.9647 56.05 45.6787V49.1671H74.3228V45.6787ZM49.1667 61.4588C49.1667 62.1107 49.4257 62.736 49.8867 63.1971C50.3477 63.6581 50.973 63.9171 51.625 63.9171H71.2917C71.9437 63.9171 72.5689 63.6581 73.03 63.1971C73.491 62.736 73.75 62.1107 73.75 61.4588V56.5421C73.75 55.8901 73.491 55.2648 73.03 54.8038C72.5689 54.3428 71.9437 54.0838 71.2917 54.0838H51.625C50.973 54.0838 50.3477 54.3428 49.8867 54.8038C49.4257 55.2648 49.1667 55.8901 49.1667 56.5421V61.4588ZM39.3382 61.4588C39.3382 62.1107 39.0792 62.736 38.6182 63.1971C38.1572 63.6581 37.5319 63.9171 36.8799 63.9171H17.2132C16.5613 63.9171 15.936 63.6581 15.4749 63.1971C15.0139 62.736 14.7549 62.1107 14.7549 61.4588V56.5421C14.7549 55.8901 15.0139 55.2648 15.4749 54.8038C15.936 54.3428 16.5613 54.0838 17.2132 54.0838H36.8799C37.5319 54.0838 38.1572 54.3428 38.6182 54.8038C39.0792 55.2648 39.3382 55.8901 39.3382 56.5421V61.4588Z" fill="black"/>
</svg>
