<svg width="45" height="38" viewBox="0 0 45 38" fill="none" xmlns="http://www.w3.org/2000/svg">
<path d="M22.5 6.02168L21.3698 7.07747C21.5162 7.22485 21.6918 7.34208 21.886 7.42215C22.0802 7.50222 22.289 7.54348 22.5 7.54348C22.711 7.54348 22.9199 7.50222 23.114 7.42215C23.3082 7.34208 23.4838 7.22485 23.6302 7.07747L22.5 6.02168ZM17.1126 32.0551C13.9395 29.6288 10.4714 27.2593 7.71907 24.2544C5.02326 21.3063 3.13953 17.8689 3.13953 13.4061H0C0 18.8191 2.32326 22.9489 5.37279 26.2766C8.36581 29.5455 12.1835 32.1647 15.1681 34.4469L17.1126 32.0551ZM3.13953 13.4061C3.13953 9.04084 5.68256 5.37806 9.15488 3.837C12.5288 2.34062 17.0623 2.73654 21.3698 7.07747L23.6302 4.96792C18.5233 -0.183126 12.5874 -1.03385 7.84884 1.06758C3.21488 3.12435 0 7.89977 0 13.4061H3.13953ZM15.1681 34.4469C16.2419 35.2671 17.393 36.1402 18.5588 36.8021C19.7247 37.464 21.0558 38 22.5 38V34.9544C21.8512 34.9544 21.0893 34.7108 20.1433 34.1728C19.1951 33.6367 18.2135 32.8977 17.1126 32.0551L15.1681 34.4469ZM29.8319 34.4469C32.8165 32.1627 36.6342 29.5476 39.6272 26.2766C42.6767 22.9468 45 18.8191 45 13.4061H41.8605C41.8605 17.8689 39.9767 21.3063 37.2809 24.2544C34.5286 27.2593 31.0605 29.6288 27.8874 32.0551L29.8319 34.4469ZM45 13.4061C45 7.89977 41.7872 3.12435 37.1512 1.06758C32.4126 -1.03385 26.4809 -0.183126 21.3698 4.96589L23.6302 7.07747C27.9377 2.73857 32.4712 2.34062 35.8451 3.837C39.3174 5.37806 41.8605 9.03881 41.8605 13.4061H45ZM27.8874 32.0551C26.7865 32.8977 25.8049 33.6367 24.8567 34.1728C23.9086 34.7088 23.1488 34.9544 22.5 34.9544V38C23.9442 38 25.2754 37.462 26.4412 36.8021C27.6091 36.1402 28.7581 35.2671 29.8319 34.4469L27.8874 32.0551Z" fill="#AC312A"/>
</svg>
