<svg width="106" height="91" viewBox="0 0 106 91" fill="none" xmlns="http://www.w3.org/2000/svg">
<path d="M21.2 67.7822H31.8L47.7 76.3951H37.1L21.2 67.7822ZM10.6 39.0725H15.9V36.2015C15.9 35.4401 16.4584 34.7099 17.4523 34.1715C18.4463 33.633 19.7944 33.3306 21.2 33.3306H42.4C43.8056 33.3306 45.1537 33.633 46.1477 34.1715C47.1416 34.7099 47.7 35.4401 47.7 36.2015V39.0725H58.3V36.2015C58.3 35.4401 58.8584 34.7099 59.8523 34.1715C60.8463 33.633 62.1944 33.3306 63.6 33.3306H84.8C86.2057 33.3306 87.5537 33.633 88.5477 34.1715C89.5416 34.7099 90.1 35.4401 90.1 36.2015V39.0725H95.4C98.2113 39.0725 100.907 39.6775 102.895 40.7543C104.883 41.8311 106 43.2916 106 44.8144V82.137C106 83.6599 104.883 85.1204 102.895 86.1972C100.907 87.274 98.2113 87.879 95.4 87.879V90.7499H79.5V87.879H26.5V90.7499H10.6V87.879C7.78871 87.879 5.09255 87.274 3.10467 86.1972C1.11678 85.1204 0 83.6599 0 82.137V44.8144C0 43.2916 1.11678 41.8311 3.10467 40.7543C5.09255 39.6775 7.78871 39.0725 10.6 39.0725ZM84.8 47.6854C86.2057 47.6854 87.5537 47.9879 88.5477 48.5263C89.5416 49.0647 90.1 49.7949 90.1 50.5564C90.1 51.3178 89.5416 52.048 88.5477 52.5865C87.5537 53.1249 86.2057 53.4273 84.8 53.4273C83.3944 53.4273 82.0463 53.1249 81.0523 52.5865C80.0584 52.048 79.5 51.3178 79.5 50.5564C79.5 49.7949 80.0584 49.0647 81.0523 48.5263C82.0463 47.9879 83.3944 47.6854 84.8 47.6854ZM63.6 47.6854C65.0057 47.6854 66.3537 47.9879 67.3477 48.5263C68.3416 49.0647 68.9 49.7949 68.9 50.5564C68.9 51.3178 68.3416 52.048 67.3477 52.5865C66.3537 53.1249 65.0057 53.4273 63.6 53.4273C62.1944 53.4273 60.8463 53.1249 59.8523 52.5865C58.8584 52.048 58.3 51.3178 58.3 50.5564C58.3 49.7949 58.8584 49.0647 59.8523 48.5263C60.8463 47.9879 62.1944 47.6854 63.6 47.6854ZM95.4 44.8144H10.6V56.2983H95.4V44.8144ZM10.6 82.137H95.4V62.0402H10.6V82.137ZM21.2 47.6854C22.6056 47.6854 23.9537 47.9879 24.9477 48.5263C25.9416 49.0647 26.5 49.7949 26.5 50.5564C26.5 51.3178 25.9416 52.048 24.9477 52.5865C23.9537 53.1249 22.6056 53.4273 21.2 53.4273C19.7944 53.4273 18.4463 53.1249 17.4523 52.5865C16.4584 52.048 15.9 51.3178 15.9 50.5564C15.9 49.7949 16.4584 49.0647 17.4523 48.5263C18.4463 47.9879 19.7944 47.6854 21.2 47.6854ZM58.3 67.7822H68.9L84.8 76.3951H74.2L58.3 67.7822Z" fill="black"/>
<path d="M15.8999 13.9094H90.0999M23.3199 13.9094L25.1897 25.1426C26.0653 30.3955 26.4994 33.0199 29.69 34.6108C32.8769 36.2016 37.7036 36.2016 47.357 36.2016H58.6428C68.2962 36.2016 73.1229 36.2016 76.3098 34.6108C79.5004 33.0199 79.9345 30.3955 80.8101 25.1426L82.6799 13.9094M23.3199 7.8297H82.6799M41.8699 7.8297L44.1812 3.66105C44.5943 3.09684 45.3075 2.6132 46.2287 2.27256C47.1499 1.93192 48.2368 1.7499 49.3493 1.75H56.6542C57.766 1.7503 58.8522 1.93251 59.7727 2.27313C60.6931 2.61375 61.4057 3.09716 61.8186 3.66105L64.1299 7.8297" stroke="#AB3123" stroke-width="3.5" stroke-linecap="round"/>
</svg>
