<svg width="106" height="90" viewBox="0 0 106 90" fill="none" xmlns="http://www.w3.org/2000/svg">
<path d="M93.9379 72.446V71.4225C93.6455 70.666 93.3531 69.5535 92.9437 68.174C92.125 65.3705 90.7799 61.6325 88.8499 57.6275C85.1655 49.9735 79.7851 43.343 73.2935 40.05H32.7065C26.2149 43.343 20.8345 49.9735 17.1501 57.6275C15.2201 61.6325 13.875 65.3705 13.0563 68.174C12.6469 69.5535 12.3545 70.666 12.0621 71.4225V72.4905L11.8866 72.9355L11.7697 73.2025C11.7112 73.425 11.7112 73.6475 11.7112 74.0035C11.7112 74.7155 11.8866 75.472 12.296 76.1395C12.5884 76.5845 14.9862 80.1 29.6069 80.1H76.3931C91.0138 80.1 93.4116 76.5845 93.704 76.1395C94.1134 75.472 94.2888 74.7155 94.2888 74.0035C94.2888 73.6475 94.2888 73.425 94.2303 73.2025L94.1134 72.9355L93.9379 72.4905V72.446ZM0.365517 71.2C0.365517 71.2 6.21379 40.05 29.6069 31.15H76.3931C99.7862 40.05 105.634 71.2 105.634 71.2C105.634 71.2 111.483 89 76.3931 89H29.6069C-5.48276 89 0.365517 71.2 0.365517 71.2ZM41.3034 8.9L53 0L64.6965 8.9L88.0897 0L76.3931 22.25H29.6069L17.9103 0L41.3034 8.9Z" fill="black"/>
<path d="M50.1662 58.1689L47.1039 55.1094C47.4515 57.009 47.5921 58.9192 47.5582 60.7793L50.1662 58.1689ZM46.0996 51.0013C54.4271 43.4249 63.4002 40.3435 67.0947 44.0346C70.8312 47.7678 67.6789 56.851 59.9606 65.2224C63.1389 66.2554 66.1523 67.9311 68.723 70.4994C56.6562 66.4227 44.8267 83.8818 36.0472 75.1102C27.6188 66.6894 44.9688 54.746 40.6284 42.4302C43.185 44.9845 44.924 47.9639 46.0996 51.0013ZM51.7186 56.6152L54.8233 53.5076L50.9463 49.634L47.5465 52.4469L51.7186 56.6152ZM56.3757 51.9538L59.4804 48.8462L56.7412 46.1095C55.4586 46.6909 54.1376 47.4512 52.7655 48.3469L56.3757 51.9538ZM61.0328 47.2925L63.6718 44.651C62.387 44.3919 60.7687 44.6069 58.9257 45.1873L61.0328 47.2925ZM65.5423 45.5884L62.4375 48.6959L63.8423 50.0994L62.2899 51.6532L60.8852 50.2497L57.7804 53.3573L60.5899 56.1642L59.0375 57.718L56.228 54.911L53.1233 58.0186L57.3375 62.229L55.7851 63.7828L51.5709 59.5724L48.4662 62.68L51.2756 65.4869L49.7232 67.0406L47.2369 64.5565C46.6576 68.4796 45.2768 71.9125 43.6062 74.0622C47.5894 72.8569 52.7249 69.5428 57.5624 64.8133C64.8674 57.3331 68.5344 48.5777 65.5423 45.5884Z" fill="#AB3123"/>
</svg>
