<svg width="25" height="29" viewBox="0 0 25 29" fill="none" xmlns="http://www.w3.org/2000/svg">
<path d="M21.3519 3.59269C19.0063 1.29233 15.8248 -2.42382e-08 12.5077 0C9.19047 2.42382e-08 6.00901 1.29233 3.66341 3.59269C1.3178 5.89304 2.47149e-08 9.013 0 12.2662C-2.47149e-08 15.5194 1.3178 18.6394 3.66341 20.9397L11.4316 28.5724C11.5686 28.7079 11.7317 28.8154 11.9113 28.8888C12.0909 28.9622 12.2836 29 12.4782 29C12.6728 29 12.8654 28.9622 13.0451 28.8888C13.2247 28.8154 13.3877 28.7079 13.5247 28.5724L21.3519 20.8674C23.6877 18.5766 25 15.4697 25 12.2301C25 8.99042 23.6877 5.88347 21.3519 3.59269ZM19.244 18.8002L12.5077 25.4355L5.77129 18.8002C4.44046 17.4939 3.53439 15.8299 3.16768 14.0187C2.80097 12.2074 2.99006 10.3302 3.71102 8.62431C4.43199 6.91842 5.65253 5.46045 7.21825 4.43471C8.78397 3.40896 10.6247 2.86148 12.5077 2.86148C14.3906 2.86148 16.2313 3.40896 17.7971 4.43471C19.3628 5.46045 20.5833 6.91842 21.3043 8.62431C22.0253 10.3302 22.2143 12.2074 21.8476 14.0187C21.4809 15.8299 20.5749 17.4939 19.244 18.8002ZM1.6129 12.2301C0.422948 13.4007 3.66341 14.9934 3.66341 16.6463C3.66341 18.2993 4.58133 19.7691 5.77129 20.9397C6.65535 21.8082 10.6848 26.1979 11.9113 26.4412C13.1378 26.6845 17.7757 21.9573 18.9345 21.4941C20.0932 21.0309 21.8771 16.5947 22.5806 15.5798C23.2842 14.565 22.5676 11.1477 22.5806 9.92057C22.5873 9.10122 22.8997 7.92201 22.5807 7.16471C22.2616 6.40741 20.3524 5.01056 19.7581 4.43471C19.1739 3.84864 19.4254 0.769737 15.2089 2.86148C14.4399 2.54046 7.69052 3.24789 6.85484 3.24118C6.01916 3.23446 3.59678 8.0502 2.82258 8.35882C2.04838 8.66744 2.20682 11.6535 1.6129 12.2301ZM14.9988 14.5936C14.4402 15.1498 13.7019 15.4984 12.9103 15.5798C12.1186 15.6613 11.3226 15.4705 10.6585 15.0402C9.99435 14.6098 9.50326 13.9666 9.2692 13.2204C9.03514 12.4743 9.07263 11.6715 9.37525 10.9495C9.67788 10.2274 10.2269 9.63092 10.9283 9.26189C11.6298 8.89286 12.4402 8.77425 13.221 8.92634C14.0018 9.07843 14.7044 9.49177 15.2089 10.0957C15.7133 10.6996 15.9881 11.4566 15.9864 12.2373C15.9649 13.1296 15.5832 13.9771 14.9251 14.5936H14.9988Z" fill="#AC312A"/>
</svg>
