<svg width="89" height="75" viewBox="0 0 89 75" fill="none" xmlns="http://www.w3.org/2000/svg">
<path d="M44.5 6.02168L43.3698 7.07747C43.5162 7.22485 43.6918 7.34208 43.886 7.42215C44.0802 7.50222 44.289 7.54348 44.5 7.54348C44.711 7.54348 44.9199 7.50222 45.114 7.42215C45.3082 7.34208 45.4838 7.22485 45.6302 7.07747L44.5 6.02168ZM39.1126 32.0551C35.9395 29.6288 32.4714 27.2593 29.7191 24.2544C27.0233 21.3063 25.1395 17.8689 25.1395 13.4061H22C22 18.8191 24.3233 22.9489 27.3728 26.2766C30.3658 29.5455 34.1835 32.1647 37.1681 34.4469L39.1126 32.0551ZM25.1395 13.4061C25.1395 9.04084 27.6826 5.37806 31.1549 3.837C34.5288 2.34062 39.0623 2.73654 43.3698 7.07747L45.6302 4.96792C40.5233 -0.183126 34.5874 -1.03385 29.8488 1.06758C25.2149 3.12435 22 7.89977 22 13.4061H25.1395ZM37.1681 34.4469C38.2419 35.2671 39.393 36.1402 40.5588 36.8021C41.7247 37.464 43.0558 38 44.5 38V34.9544C43.8512 34.9544 43.0893 34.7108 42.1433 34.1728C41.1951 33.6367 40.2135 32.8977 39.1126 32.0551L37.1681 34.4469ZM51.8319 34.4469C54.8165 32.1627 58.6342 29.5476 61.6272 26.2766C64.6767 22.9468 67 18.8191 67 13.4061H63.8605C63.8605 17.8689 61.9767 21.3063 59.2809 24.2544C56.5286 27.2593 53.0605 29.6288 49.8874 32.0551L51.8319 34.4469ZM67 13.4061C67 7.89977 63.7872 3.12435 59.1512 1.06758C54.4126 -1.03385 48.4809 -0.183126 43.3698 4.96589L45.6302 7.07747C49.9377 2.73857 54.4712 2.34062 57.8451 3.837C61.3174 5.37806 63.8605 9.03881 63.8605 13.4061H67ZM49.8874 32.0551C48.7865 32.8977 47.8049 33.6367 46.8567 34.1728C45.9086 34.7088 45.1488 34.9544 44.5 34.9544V38C45.9442 38 47.2754 37.462 48.4412 36.8021C49.6091 36.1402 50.7581 35.2671 51.8319 34.4469L49.8874 32.0551Z" fill="#AC312A"/>
<path d="M10.1013 51.8604C11.4952 53.3403 12.8792 54.8104 14.1821 56.6787V60.1671H32.4549V56.6787C32.128 53.9647 31.5527 49.0751 31.5011 47.7156C31.4322 45.803 28.8657 42.3171 28.8657 42.3171L20.9868 32.3855C20.9868 32.3855 18.7571 30.0304 17.4812 27.4196C16.2029 24.8064 13.4889 28.0932 13.13 30.4434C12.7661 32.7935 13.4545 34.0325 13.4545 34.0325L17.9532 42.976C17.9532 42.976 12.7366 35.8296 11.1166 32.9583C10.2955 31.5029 10.0669 28.4202 9.80875 24.976C9.56045 21.6204 9.28512 17.9206 8.41241 15.0444C6.64241 9.21813 1.52416 10.6759 0.636704 13.2818C-0.248296 15.8851 -0.0491706 33.091 0.272871 35.9599C0.526079 38.2068 1.88062 40.4045 3.40725 42.8825C3.83008 43.5709 4.26766 44.2789 4.69787 45.0139C6.40887 47.9443 8.26246 49.9134 10.1013 51.8604ZM74.3228 56.6787C75.6257 54.8104 77.0098 53.3403 78.4036 51.8604C80.2425 49.9134 82.096 47.9443 83.8095 45.0139C84.2373 44.2764 84.6748 43.5709 85.0977 42.885C86.6243 40.407 87.9788 38.2068 88.232 35.9599C88.5541 33.091 88.7557 15.8851 87.8682 13.2818C86.9808 10.6759 81.8625 9.21813 80.0925 15.0468C79.2223 17.9231 78.9469 21.6204 78.6962 24.976C78.438 28.4202 78.2094 31.5029 77.3883 32.9583C75.7683 35.832 70.5493 42.976 70.5493 42.976L75.0505 34.0325C75.0505 34.0325 75.7388 32.7935 75.3774 30.4434C75.016 28.0932 72.302 24.8064 71.0262 27.4196C69.7478 30.0304 67.5181 32.3855 67.5181 32.3855L59.6392 42.3171C59.6392 42.3171 57.0727 45.803 57.0038 47.7156C56.9547 49.0751 56.377 53.9647 56.05 56.6787V60.1671H74.3228V56.6787ZM49.1667 72.4588C49.1667 73.1107 49.4257 73.736 49.8867 74.1971C50.3477 74.6581 50.973 74.9171 51.625 74.9171H71.2917C71.9437 74.9171 72.5689 74.6581 73.03 74.1971C73.491 73.736 73.75 73.1107 73.75 72.4588V67.5421C73.75 66.8901 73.491 66.2648 73.03 65.8038C72.5689 65.3428 71.9437 65.0838 71.2917 65.0838H51.625C50.973 65.0838 50.3477 65.3428 49.8867 65.8038C49.4257 66.2648 49.1667 66.8901 49.1667 67.5421V72.4588ZM39.3382 72.4588C39.3382 73.1107 39.0792 73.736 38.6182 74.1971C38.1572 74.6581 37.5319 74.9171 36.8799 74.9171H17.2132C16.5613 74.9171 15.936 74.6581 15.4749 74.1971C15.0139 73.736 14.7549 73.1107 14.7549 72.4588V67.5421C14.7549 66.8901 15.0139 66.2648 15.4749 65.8038C15.936 65.3428 16.5613 65.0838 17.2132 65.0838H36.8799C37.5319 65.0838 38.1572 65.3428 38.6182 65.8038C39.0792 66.2648 39.3382 66.8901 39.3382 67.5421V72.4588Z" fill="black"/>
</svg>
