<svg width="43" height="68" viewBox="0 0 43 68" fill="none" xmlns="http://www.w3.org/2000/svg">
<path d="M9.69404 54.3C9.90654 54.285 10.0882 54.2136 10.2391 54.0858C10.39 53.958 10.4651 53.8044 10.4644 53.625C10.4644 53.415 10.3847 53.2464 10.2253 53.1192C10.0659 52.992 9.86227 52.9356 9.61436 52.95C8.88831 52.995 8.118 52.8264 7.30342 52.4442C6.48883 52.062 5.97529 51.3681 5.76279 50.3625C5.72738 50.1975 5.63458 50.0625 5.48442 49.9575C5.33425 49.8525 5.16142 49.8 4.96592 49.8C4.718 49.8 4.51436 49.8789 4.35498 50.0367C4.19561 50.1945 4.14248 50.3781 4.19561 50.5875C4.49665 51.9525 5.20498 52.9275 6.32061 53.5125C7.43623 54.0975 8.56071 54.36 9.69404 54.3ZM9.40186 57C6.97581 57 4.95281 56.295 3.33286 54.885C1.7129 53.475 0.902564 51.72 0.901855 49.62C0.901855 48.12 1.60594 46.4889 3.01411 44.7267C4.42227 42.9645 6.55152 41.0556 9.40186 39C12.2529 41.055 14.3825 42.9639 15.7907 44.7267C17.1988 46.4895 17.9026 48.1206 17.9019 49.62C17.9019 51.72 17.0919 53.475 15.4719 54.885C13.852 56.295 11.8286 57 9.40186 57Z" fill="#AC312A"/>
<path d="M26.875 5.23077V10.4615H32.25C38.1625 10.4615 43 15.1692 43 20.9231V68H32.25V20.9231H16.125V31.3846H18.8125C20.3175 31.3846 21.5 32.5354 21.5 34V36.6154H0V34C0 32.5354 1.1825 31.3846 2.6875 31.3846H5.375V20.9231C5.375 15.6923 10.75 10.4615 16.125 10.4615H21.5V5.23077H13.4375C11.9325 5.23077 10.75 4.08 10.75 2.61538C10.75 1.15077 11.9325 0 13.4375 0H34.9375C36.4425 0 37.625 1.15077 37.625 2.61538C37.625 4.08 36.4425 5.23077 34.9375 5.23077H26.875Z" fill="black"/>
</svg>
