<svg width="106" height="89" viewBox="0 0 106 89" fill="none" xmlns="http://www.w3.org/2000/svg">
<path d="M31.8294 88.9998C28.9117 88.9998 26.4149 88.2393 24.3389 86.7183C22.2629 85.1973 21.2231 83.3666 21.2196 81.2263C21.2161 79.086 22.2558 77.2567 24.3389 75.7382C26.4219 74.2198 28.9188 73.458 31.8294 73.4528C34.74 73.4477 37.2386 74.2095 39.3252 75.7382C41.4118 77.267 42.4498 79.0964 42.4392 81.2263C42.4286 83.3562 41.3906 85.1869 39.3252 86.7183C37.2599 88.2496 34.7612 89.0101 31.8294 88.9998ZM84.8784 88.9998C81.9607 88.9998 79.4639 88.2393 77.3879 86.7183C75.3119 85.1973 74.2721 83.3666 74.2686 81.2263C74.2651 79.086 75.3048 77.2567 77.3879 75.7382C79.471 74.2198 81.9678 73.458 84.8784 73.4528C87.789 73.4477 90.2877 74.2095 92.3742 75.7382C94.4608 77.267 95.4988 79.0964 95.4882 81.2263C95.4776 83.3562 94.4396 85.1869 92.3742 86.7183C90.3089 88.2496 87.8103 89.0101 84.8784 88.9998ZM22.2806 19.0386H100.528C102.561 19.0386 104.109 19.7032 105.17 21.0325C106.231 22.3618 106.275 23.7053 105.302 25.063L86.4699 49.9381C85.4973 51.2337 84.1941 52.2378 82.5602 52.9503C80.9263 53.6629 79.135 54.0192 77.1863 54.0192H37.6648L31.8294 61.7926H95.4882V69.5661H31.8294C27.8507 69.5661 24.8446 68.2874 22.8111 65.7299C20.7775 63.1724 20.6891 60.6292 22.5458 58.1003L29.7074 48.5778L10.6098 19.0386H0V11.2651H17.2409L22.2806 19.0386Z" fill="black"/>
<path d="M43.6902 17.7423C42.5999 16.4446 40.9824 15.5542 39.306 14.9375C37.6219 14.3187 35.8095 13.95 34.237 13.7284C34.1259 13.7115 34.027 13.6584 33.9612 13.5804C33.8955 13.5024 33.8681 13.4057 33.885 13.3108C34.2614 11.3414 34.4719 8.80717 33.7341 6.62858C33.4565 5.81034 32.6403 5.36921 31.777 5.40797C30.9691 5.44543 30.2251 5.89053 29.8753 6.58565C29.4486 7.4332 28.9198 8.41132 28.3727 9.2498C28.0998 9.66913 27.8308 10.0411 27.5764 10.3385C27.312 10.646 27.1044 10.8279 26.9643 10.912C26.8269 10.9964 26.557 11.1055 26.1294 11.2174C25.716 11.3256 25.2163 11.4216 24.6613 11.5051C23.5526 11.6724 22.2931 11.7796 21.2131 11.8482C20.3263 11.9042 19.5886 12.3581 19.2861 12.9971C18.9618 13.6787 19.1879 14.4783 20.0083 14.9668C22.1891 16.2659 25.0717 16.9175 27.3816 17.2561C27.609 17.2883 27.7691 17.4789 27.7308 17.6745C27.4691 19.0103 27.2914 20.5886 27.434 22.1438C27.5775 23.6946 28.0438 25.2842 29.1352 26.5832C30.3551 28.0352 32.1819 28.9198 34.0189 29.4644C35.8609 30.0109 37.7977 30.2384 39.3464 30.3276C40.5105 30.4006 41.6679 30.1247 42.6176 29.5478C43.5674 28.9709 44.2496 28.1294 44.5457 27.1694C44.9473 25.8946 45.3218 24.2642 45.3126 22.6045C45.3009 20.9502 44.9089 19.1941 43.6902 17.7423ZM41.2891 23.8471C41.2314 24.1419 41.0383 24.405 40.7524 24.5787C40.4664 24.7524 40.1111 24.8224 39.7644 24.7733C39.4178 24.7242 39.1083 24.56 38.904 24.3169C38.6997 24.0738 38.6174 23.7716 38.6752 23.4769C38.7329 23.1821 38.926 22.919 39.2119 22.7453C39.4979 22.5716 39.8533 22.5016 40.1999 22.5507C40.5465 22.5998 40.856 22.764 41.0603 23.0071C41.2646 23.2503 41.3469 23.5524 41.2891 23.8471Z" fill="#AB3123"/>
<path d="M73.5402 0.844943C73.5402 0.62085 73.4355 0.405935 73.2491 0.247478C73.0628 0.0890204 72.81 0 72.5465 0C72.2829 0 72.0301 0.0890204 71.8438 0.247478C71.6574 0.405935 71.5527 0.62085 71.5527 0.844943V5.3682C68.8683 3.83829 65.1039 4.37568 63.2145 6.73701L53.4704 18.9109C52.7337 19.8325 52.8742 21.0627 53.8083 21.8491C54.2699 22.2351 54.8753 22.4721 55.5203 22.5194C56.1654 22.5667 56.8096 22.4213 57.3421 22.1082L71.6388 13.6937C72.9202 12.9452 73.8024 11.7971 74.0939 10.4988C74.3854 9.20042 74.0627 7.85671 73.1957 6.75954H78.5076C78.7712 6.75954 79.024 6.67052 79.2103 6.51206C79.3967 6.35361 79.5014 6.13869 79.5014 5.9146C79.5014 5.69051 79.3967 5.47559 79.2103 5.31713C79.024 5.15868 78.7712 5.06966 78.5076 5.06966H74.9434L79.2099 1.44204C79.3854 1.28186 79.481 1.07001 79.4764 0.851114C79.4719 0.632216 79.3676 0.423363 79.1855 0.268555C79.0035 0.113747 78.7578 0.0250703 78.5004 0.0212081C78.2429 0.0173459 77.9938 0.0985992 77.8054 0.24785L73.5402 3.87434V0.844943Z" fill="#AB3123"/>
<path d="M91.4173 8.9886C91.5021 8.96676 91.5808 8.93068 91.6489 8.88249C91.717 8.83431 91.773 8.77501 91.8137 8.7081C91.8544 8.64118 91.8788 8.56801 91.8856 8.49291C91.8925 8.41782 91.8815 8.34232 91.8534 8.27089C91.8253 8.19946 91.7807 8.13354 91.7221 8.07704C91.6635 8.02054 91.5922 7.9746 91.5124 7.94194C91.4326 7.90928 91.3458 7.89056 91.2574 7.8869C91.1689 7.88323 91.0804 7.89469 90.9973 7.9206C89.7557 8.27209 88.9806 9.13957 88.5248 10.069C88.4633 10.1945 88.4072 10.3219 88.3565 10.4509C88.1083 10.0512 87.7907 9.68542 87.4145 9.36601C86.9047 8.9326 86.2963 8.59216 85.6265 8.36552C84.9567 8.13888 84.2396 8.0308 83.519 8.0479C82.7505 8.06593 82.137 8.58866 82.1158 9.24096C82.0957 9.85367 82.2228 10.4634 82.4893 11.0329C82.7559 11.6024 83.1563 12.1197 83.666 12.5531L83.7071 12.5869C82.5939 12.7916 81.5879 13.2957 80.838 14.0246C80.0882 14.7535 79.6344 15.6683 79.544 16.6336L79.536 16.717C79.3611 18.5727 79.8261 20.4316 80.8743 22.0661L81.3513 22.8074C81.3636 22.8269 81.3778 22.8457 81.3937 22.8637L82.7187 24.4432C83.019 24.8008 83.4073 25.0984 83.8566 25.3155C84.3059 25.5325 84.8055 25.6637 85.3205 25.7C85.8355 25.7362 86.3536 25.6766 86.8388 25.5253C87.324 25.374 87.7646 25.1347 88.13 24.824C88.1861 24.7762 88.2527 24.7384 88.326 24.7125C88.3993 24.6867 88.4779 24.6734 88.5573 24.6734C88.6366 24.6734 88.7152 24.6867 88.7885 24.7125C88.8619 24.7384 88.9285 24.7762 88.9846 24.824C89.3499 25.1347 89.7905 25.374 90.2757 25.5253C90.7609 25.6766 91.279 25.7362 91.794 25.7C92.309 25.6637 92.8086 25.5325 93.2579 25.3155C93.7073 25.0984 94.0956 24.8008 94.3959 24.4432L95.7209 22.8648L95.7633 22.8074L96.239 22.0661C97.2871 20.4316 97.7521 18.5727 97.5772 16.717L97.5706 16.6336C97.5119 16.0115 97.302 15.4065 96.9539 14.857C96.6059 14.3075 96.1274 13.8255 95.5488 13.4414C94.9702 13.0574 94.3041 12.7797 93.5926 12.626C92.8812 12.4724 92.14 12.446 91.416 12.5486L89.2204 12.8596C89.2337 12.0924 89.3927 11.2294 89.7491 10.5016C90.1201 9.74117 90.6713 9.2004 91.416 8.9886M84.4597 15.7481C84.2563 15.8028 84.0676 15.8912 83.9046 16.0082C83.7415 16.1252 83.6073 16.2684 83.5097 16.4297C83.2646 16.8218 83.0963 17.4684 83.2513 18.5241C83.2687 18.6704 83.2181 18.8167 83.1103 18.9318C83.0024 19.0468 82.846 19.1214 82.6743 19.1396C82.5027 19.1579 82.3294 19.1183 82.1916 19.0294C82.0538 18.9405 81.9624 18.8092 81.9369 18.6638C81.7607 17.4651 81.9237 16.5627 82.341 15.8991C82.765 15.2232 83.4103 14.8581 84.041 14.679C84.2078 14.6318 84.3897 14.6428 84.5469 14.7097C84.7041 14.7766 84.8235 14.8938 84.8791 15.0356C84.9346 15.1774 84.9216 15.3321 84.843 15.4657C84.7643 15.5993 84.6265 15.7009 84.4597 15.7481Z" fill="#AB3123"/>
</svg>
