<svg width="43" height="68" viewBox="0 0 43 68" fill="none" xmlns="http://www.w3.org/2000/svg">
<path d="M26.875 5.23077V10.4615H32.25C38.1625 10.4615 43 15.1692 43 20.9231V68H32.25V20.9231H16.125V31.3846H18.8125C20.3175 31.3846 21.5 32.5354 21.5 34V36.6154H0V34C0 32.5354 1.1825 31.3846 2.6875 31.3846H5.375V20.9231C5.375 15.6923 10.75 10.4615 16.125 10.4615H21.5V5.23077H13.4375C11.9325 5.23077 10.75 4.08 10.75 2.61538C10.75 1.15077 11.9325 0 13.4375 0H34.9375C36.4425 0 37.625 1.15077 37.625 2.61538C37.625 4.08 36.4425 5.23077 34.9375 5.23077H26.875Z" fill="black"/>
</svg>
