<svg width="885" height="998" viewBox="0 0 885 998" fill="none" xmlns="http://www.w3.org/2000/svg">
<path d="M479.147 990.344L468.967 996.521H464.698L461.086 992.506L451.891 986.638L449.593 983.859V979.226V971.814L446.966 968.417L445.981 965.637L448.279 963.784L450.578 962.549L449.593 948.96L434.159 919.621L430.219 911.9L424.965 904.796L420.367 898.311L417.412 892.134L415.442 887.501L411.173 865.883L409.203 855.691L407.232 849.206V821.101L402.635 816.16L398.038 809.366L394.426 802.571L391.799 795.777L387.202 783.115L385.231 777.247L380.962 771.07L375.708 764.275V732.774L378.335 725.98L380.962 722.582V717.95L381.619 712.391L385.231 705.287L386.873 700.655L390.157 694.478L394.426 690.463L399.68 683.978L401.65 680.581V662.977L396.396 654.947L393.112 646.917L391.799 642.902V639.196L393.769 636.108L396.396 633.02L395.411 629.005L393.769 623.446L390.814 615.725L388.187 608.621L383.918 604.607V597.503L382.604 592.253L378.992 584.532L374.067 577.12L364.872 566.002L350.424 549.016L340.572 534.192L339.587 530.794V526.162L346.483 510.102L347.797 502.381L346.483 500.22V496.205L349.767 485.704L351.409 476.13V471.189L347.797 465.63L343.199 462.541L340.901 459.144L338.274 455.438L334.99 453.894V448.644L332.035 450.806L328.094 452.35L324.154 454.512H319.228H315.287L312.989 456.982H308.063H302.481L299.854 454.512L295.585 449.57L293.286 445.247L292.301 441.541L289.017 436.908L286.39 434.128L281.793 430.731L278.509 429.805H263.404H254.866L245.344 431.967L235.492 435.055L222.686 440.305L212.178 446.482L205.282 449.57L196.744 450.497L190.833 446.482H182.296L176.713 444.629H168.176H159.638L150.115 446.482L137.308 452.659L127.129 454.821H119.248L111.038 450.188L97.9033 440.305L83.4548 426.716L65.3942 415.289L55.2146 404.48L52.2592 389.965L46.0201 380.082L35.8405 373.288V368.655L31.9 364.331L22.0487 355.993L13.1826 348.272L10.2272 342.404V334.683V327.58L6.94347 321.094L4.31647 315.535L0.704346 311.829L6.94347 305.652L10.2272 300.402L13.8393 292.372V285.269L16.138 279.71L19.0933 272.298V259.327L16.138 247.282L19.0933 241.723L16.138 231.531L8.58534 225.354L10.2272 213.928L16.138 208.368L19.0933 203.118V196.941L22.7055 189.221L27.6311 182.117L34.1986 177.794L38.7958 170.381V163.896L41.4228 157.719L45.035 152.16L51.9308 149.381L55.5429 143.821L60.4686 136.101L65.3942 129.924L73.6036 128.38L80.8278 126.527L89.6939 117.57L96.9182 112.011L102.501 107.379L106.769 101.202L104.471 92.5545V86.0689L106.769 79.8922L110.053 71.5536L113.337 64.7591L117.934 58.5824L128.114 52.7145L139.935 45.9201L144.204 40.0522L147.16 33.5666L152.742 22.4484H162.922L169.489 26.7722H181.967L187.55 29.8605H201.341L212.835 19.9777H223.342L237.463 11.948L251.254 9.78611L270.957 7.62425H285.734H290.003L300.839 3.60937H312.66L316.601 5.46239H327.437L342.543 0.520996L348.453 2.06518L350.095 7.62425L358.633 5.46239L354.692 12.8745V19.6689L358.633 23.0661V35.7284L350.095 40.9787V45.6112L356.991 47.7731L358.633 50.8615L366.842 58.8912L380.634 62.9061L394.426 64.7591L407.561 68.774L414.128 71.2447L416.427 78.0391L419.711 83.5982L429.89 85.1424L439.742 88.5396L451.891 92.8633L460.758 97.8047H464.37L474.221 90.3926L475.534 87.3043L474.221 85.1424L470.937 80.8187V77.1126L472.907 73.7154L478.161 67.8475L486.042 62.9061H495.237L500.819 65.3768H508.044L511.327 70.9359L515.596 71.8624L521.507 74.6419H532.343L536.284 79.8922H555.329L583.898 89.7749L597.033 80.8187H616.736L621.661 88.5396L624.288 85.1424L633.483 88.5396H643.334L649.245 85.1424L660.409 108.923L655.812 113.864L653.842 129.615L651.543 133.63L643.334 127.453L637.423 119.114L628.885 105.834L633.483 117.57L643.334 133.63L649.245 146.91L657.454 160.499L667.634 174.088L675.843 184.279L674.201 187.676V192.927L675.843 197.868L685.366 204.971L690.62 209.604L694.56 216.089L698.173 223.501L696.531 228.443V234.311L698.173 242.958L700.8 251.606L703.098 258.4L706.382 261.18L713.935 265.503L718.86 273.224L726.084 287.74L727.726 296.696L740.861 306.579L757.608 319.55L782.893 343.639V350.742L776.326 353.831L782.893 358.154L794.058 371.126H800.625L806.865 369.89L812.119 367.728L827.881 366.493L834.448 362.478L843.643 361.243L848.897 358.154L863.345 356.301L872.54 353.831L877.465 349.198H883.704V367.728L882.062 369.89L880.092 377.302L875.495 396.141L865.972 418.687L855.792 438.452L843.643 456.365L830.179 473.66L818.029 486.013L805.551 494.969L792.745 504.234L783.222 513.5L770.087 528.941L766.475 536.971L753.668 548.089L746.772 553.031L745.13 560.443L739.876 567.546L738.563 574.341L732.652 579.9L729.04 590.709L726.741 597.812V604.298L734.294 608.621L736.264 610.474L732.652 620.048V634.255L740.533 653.094L744.802 656.182L748.086 662.668V701.581V715.788L746.115 724.127L741.518 732.465L732.652 743.274L720.83 750.378L708.681 755.319L703.427 758.407L694.889 766.746L676.5 782.806L667.305 789.291V796.703L673.544 811.836L682.739 821.41L678.798 825.116L673.544 840.249V847.044L663.365 855.382L645.304 862.794L636.438 869.898L641.364 873.604L636.438 888.737L628.557 911.591L613.123 922.091L604.914 936.607L591.122 952.357L567.479 970.888L544.821 981.388H535.299H519.865H503.118L490.311 986.638L479.147 990.344Z" stroke="#AC312A"/>
<path d="M760.449 460.475L750.015 474.704V524.194L757.188 535.948" stroke="#AC312A"/>
<path d="M659.367 528.834L680.562 538.423L696.213 548.63L708.604 557.6V564.096L724.907 578.325" stroke="#AC312A"/>
<path d="M614.696 529.762L616.326 533.783L619.261 538.732V543.372L616.326 548.012H606.87L604.914 552.961L596.762 554.507L595.784 543.372L601.653 535.948L606.87 531.309" stroke="#AC312A"/>
<path d="M614.696 548.012V553.579L618.282 556.673V562.55L602.957 575.232L598.718 567.499L597.083 556.673V554.817" stroke="#AC312A"/>
<path d="M687.736 315.715L701.43 318.189L705.017 307.982L713.821 315.715L719.038 311.693L725.56 314.168L736.32 315.715L756.21 331.799L763.71 341.388M763.71 341.388H773.166M763.71 341.388L756.21 351.286V357.782L758.493 362.421H770.558M770.558 362.421L773.166 357.782M770.558 362.421L767.623 368.917L773.166 378.197L781.318 386.239L792.404 391.497L804.469 396.446L819.142 401.705L835.12 404.489M835.12 404.489L848.815 386.239V357.782M835.12 404.489L799.904 445.628H784.253L773.166 455.526H763.71L760.775 460.166H751.971L747.08 455.526L734.364 462.64L731.755 466.661H722.625L713.821 462.64H707.626L695.561 453.051H686.105L682.844 448.721V441.297L675.671 438.204" stroke="#AC312A"/>
<path d="M618.935 464.805V481.199L622.848 485.839M622.848 485.839L626.761 478.725L630.999 464.805M622.848 485.839L609.153 498.83L605.566 509.656L603.283 529.143L609.153 532.546L617.631 527.906H659.368V509.656L665.563 501.614L671.758 491.097V485.839L669.15 475.941L665.563 464.805L659.368 456.145" stroke="#AC312A"/>
<path d="M573.936 442.535L583.392 453.979H592.196L604.261 450.886L607.848 457.073L617.956 464.496H624.803H631.325L641.107 462.022H653.498L675.344 438.514L670.779 427.069L666.214 422.429L661.649 419.336L658.715 412.531L653.498 408.819H645.346L649.911 399.54H656.758V377.269" stroke="#AC312A"/>
<path d="M737.625 657.819L718.713 668.645L706.322 671.12L700.779 675.141H692.301H688.714L675.345 671.12L663.933 672.975L660.672 655.344L658.39 647.611L654.151 644.209H645.021" stroke="#AC312A"/>
<path d="M663.932 673.594L659.693 684.73V693.7L673.388 707.619L677.953 718.445V734.53L673.388 738.551L667.519 745.046L663.932 740.716L659.693 734.53V727.106L663.932 720.301L659.693 714.733H652.52L644.694 707.619" stroke="#AC312A"/>
<path d="M576.872 910.531L585.676 917.645L584.045 921.976L567.09 937.442H564.481L556.656 928.162V924.45L570.677 913.006L576.22 910.222" stroke="#AC312A"/>
<path d="M472.53 857.328L480.355 867.845L482.312 873.722L480.355 878.362L482.312 884.548L491.768 883.002L503.18 873.722L506.441 867.845L512.636 864.443H520.462L525.353 870.01H537.744L544.917 864.443L547.2 857.328L555.025 855.163L562.525 841.863L570.351 833.82L585.676 823.304L593.176 819.592M593.176 819.592L613.718 821.448M593.176 819.592L585.676 812.168H576.872L572.959 805.363V796.702H568.394L551.439 776.597L547.2 770.41L544.917 761.131" stroke="#AC312A"/>
<path d="M605.24 730.199L589.589 735.767L584.046 746.902H574.263L565.786 764.533L545.569 761.44L536.113 754.326L512.962 756.182" stroke="#AC312A"/>
<path d="M544.917 760.822H531.874L522.744 766.08L517.201 760.822L488.506 767.936L485.898 813.715L472.855 817.117L469.92 905.272L464.051 913.005H450.682H439.27L436.335 905.272H431.118L426.227 909.912" stroke="#AC312A"/>
<path d="M530.896 670.81H546.221L553.395 677.615H562.851L569.698 675.759L573.611 681.636L582.415 684.73L591.871 697.102H600.023V684.73H594.806L586.328 677.615L589.262 649.158L594.806 635.239L600.023 629.98H614.044L628.391 635.239L645.021 642.662L651.216 658.438L645.021 673.285L648.281 687.823L639.803 700.195L645.021 707L607.522 719.064V735.458H623.5L633.934 741.025L639.803 752.161L636.543 771.029V788.66L631.326 803.507L614.044 821.448L623.5 847.74L619.913 866.299V871.557M619.913 871.557H610.783L607.522 878.671V886.713L610.783 891.972L619.913 889.497L623.5 884.548M619.913 871.557L623.5 884.548M623.5 884.548H631.326" stroke="#AC312A"/>
<path d="M449.703 520.792L444.16 528.215L433.726 540.279L431.117 552.651L426.552 568.117L415.14 578.325L412.531 581.727H405.358L401.445 586.676L397.206 589.151V593.481L391.663 596.265L380.902 597.502" stroke="#AC312A"/>
<path d="M376.338 582.655L383.186 576.778H385.794L391.012 580.799H393.946L398.511 576.778H404.38L405.359 580.799" stroke="#AC312A"/>
<path d="M393.293 595.646H431.77L439.269 614.824L447.095 625.96L454.269 624.722L458.834 622.866H463.399L467.638 624.722L471.877 612.968H480.028V609.875H486.876L485.898 614.824L500.897 615.752V624.722L504.158 627.506V634.311L502.201 635.858V646.374L507.092 650.705L506.114 668.027L508.723 665.861H518.831V664.315H531.221L528.287 674.522V678.853L530.569 679.781V684.111L528.287 686.895V691.844L502.853 692.463L500.897 735.767L515.896 753.089L508.723 758.347L492.419 762.368H476.115H463.399L454.269 753.089H403.076H398.837L393.293 749.068H384.49L372.751 753.089" stroke="#AC312A"/>
<path d="M449.704 520.792L451.334 510.584L452.638 495.119V487.695L455.899 480.89L458.834 475.013L459.812 466.352" stroke="#AC312A"/>
<path d="M391.011 484.292V489.242L393.294 495.119H403.728L405.358 497.593V501.614L401.119 513.987L405.358 520.173L408.293 525.741V539.97L405.358 543.681L403.728 548.94H393.294L389.055 546.156L385.142 541.516V546.156L379.273 548.94H374.382L371.447 551.414V555.435L374.382 558.529V562.859L366.556 568.736" stroke="#AC312A"/>
<path d="M419.705 412.222L412.858 425.213L408.945 429.234V448.102L412.858 454.907L419.705 466.043L425.901 473.776L428.835 480.89L435.683 469.755L441.878 462.64L452.638 466.043H459.486V458.929L463.725 454.907L469.594 448.102L476.768 445.628L491.115 454.907H502.527L507.418 458.929L513.288 452.124L522.744 448.102L535.786 445.628L542.308 448.102L547.199 445.628L552.09 441.916H572.306V436.658L566.111 433.874L560.894 429.234L557.959 421.501L552.09 416.861L544.59 412.222V406.654L530.243 396.447" stroke="#AC312A"/>
<path d="M516.548 362.112L520.135 371.392L525.026 376.341V382.527L520.135 390.879L529.917 395.828L536.764 390.879L540.351 376.341L548.177 371.392H554.372L563.828 382.527H571.002H578.175L583.719 385.311H592.523L601 378.815L604.913 371.392L617.956 378.815H623.825L629.369 371.392L636.868 362.112V349.43L646.65 345.719V362.112L652.52 371.392L656.106 378.815L660.019 371.392L666.867 364.587L671.432 349.43L679.257 342.316L684.475 331.49L688.061 316.643L684.475 308.601L688.061 298.084L690.344 288.186V280.762L695.561 275.813H702.735L707.952 267.152" stroke="#AC312A"/>
<path d="M538.722 210.856H685.454" stroke="#AC312A"/>
<path d="M403.401 342.007L406.662 335.821" stroke="#AC312A"/>
<path d="M183.629 380.362L184.934 376.032V362.422H213.302L217.541 360.875H221.78V366.752L226.997 371.392V392.425L224.062 397.374L225.693 404.489L229.605 414.077L230.91 421.81L236.127 430.162" stroke="#AC312A"/>
<path d="M222.759 361.803L239.388 363.35V375.722L241.345 380.362V386.239L243.953 388.714V420.882V423.666L245.584 429.234" stroke="#AC312A"/>
<path d="M257.975 426.759V393.972L258.953 391.497V388.095L269.713 377.269V368.298V362.421L268.409 357.782L269.713 339.841L273.952 334.583V328.706L277.539 324.375H282.43L295.147 323.138L297.755 325.303L303.298 327.469L309.494 333.655H316.341L322.537 330.252L337.862 337.676H344.383L350.905 331.799L360.687 330.252H369.491L377.317 333.655H381.229L387.751 327.469H391.664L399.163 339.223L405.033 343.862L408.619 347.884L406.989 355.307L395.903 365.205L387.751 389.332V393.044L379.273 399.849V405.416L373.404 417.48L368.187 420.882L363.622 422.429L356.774 417.48H351.883L346.014 424.285H340.797L331.993 447.174" stroke="#AC312A"/>
<path d="M54.5066 389.951L63.9626 379.125L70.4841 376.341H79.288L86.1355 389.951L89.3962 398.921L83.5269 406.345L79.288 414.077L76.6794 420.264" stroke="#AC312A"/>
<path d="M89.3958 398.612L97.8736 396.756L102.113 403.87V411.912L105.047 413.459H107.656L110.264 408.819H116.46V398.612L121.025 394.591V388.714L119.068 384.693L116.46 380.981V376.65L121.025 372.629" stroke="#AC312A"/>
<path d="M113.524 409.128L114.829 416.861L113.524 421.81V426.141L121.676 431.399L125.263 435.73V441.297L124.285 453.67" stroke="#AC312A"/>
<path d="M10.1602 332.418H20.5944L25.4855 330.562L27.768 328.397H30.7026L35.9198 331.49L42.4412 329.943L45.7019 328.397L43.4194 324.375L40.4848 325.613H34.2894L30.0505 323.138H25.4855L23.203 325.613H10.1602" stroke="#AC312A"/>
<path d="M10.1602 342.935H13.0948L15.3773 341.697H20.9205L23.203 340.151H47.3322H54.5058L58.4187 342.935H61.6794V344.791L66.2444 342.935H76.0265" stroke="#AC312A"/>
<path d="M29.7249 360.566L35.5941 355.307L40.1591 354.379L45.0502 351.905L46.0284 347.884L47.3327 345.409V340.46" stroke="#AC312A"/>
<path d="M14.0725 291.588L18.3114 287.258L26.1371 288.185L29.0718 285.711L39.18 286.33L46.6796 291.588H50.9185L67.8742 312.312" stroke="#AC312A"/>
<path d="M160.479 170.027H142.872L152.654 288.186L155.588 293.753L152.654 295.919V299.94H101.787L98.1999 304.579L93.6349 302.724L87.7657 304.579L77.0053 299.94L71.4621 307.982L68.2014 312.312V323.757L77.0053 333.655L75.375 347.884L82.8746 345.1L87.7657 350.358L98.1999 347.884L104.721 343.553L113.525 355.617V364.587L116.786 368.299L120.699 372.938L135.046 374.485L137.328 370.773L142.872 368.299L145.48 374.485L152.654 370.773V360.566L155.588 359.019V352.214L166.675 340.46V331.49L172.544 328.706H179.392L186.239 323.757L194.717 317.261L200.586 312.312L211.673 307.982H220.477H236.454L239.715 302.724H261.561L269.387 298.393V290.66L276.235 283.546V251.068" stroke="#AC312A"/>
<path d="M80.918 126.104L117.112 131.671" stroke="#AC312A"/>
<path d="M116.786 138.476V157.035H75.7008L73.7443 174.048L75.7008 186.42L73.7443 192.607L62.0058 194.463V221.064H10.4866" stroke="#AC312A"/>
<path d="M372.099 190.751L334.927 213.949L312.428 230.653L296.124 243.953L278.19 250.758H264.169V243.953L247.54 236.22L242.323 230.653L196.999 195.39L116.785 138.167V117.443L130.154 109.71L149.066 103.523L158.522 98.5743L166.348 92.388L177.435 86.2017V78.4687L185.26 75.6849L196.999 68.8799H207.107V59.2911L201.564 44.7532L196.999 29.906" stroke="#AC312A"/>
<path d="M524.701 246.428V297.156H515.897L507.745 313.24V323.448L502.528 339.842H507.745L510.679 345.719V353.452L515.897 357.473V361.494L506.114 363.04L498.941 371.392L494.376 379.434L489.159 386.549L480.681 390.26H466.008V394.591L452.639 405.726L438.944 410.366L434.053 407.582L430.14 410.366H420.032L417.423 401.086L415.141 394.591L406.989 386.549L401.446 382.527L404.38 377.269H420.032L415.141 366.134L412.532 347.575L406.989 336.439V330.562H401.446V321.283L395.576 316.334L398.837 301.796L404.38 294.063L415.141 286.33L422.314 232.509L417.423 228.178V222.92L413.51 221.373L410.25 207.145V198.793" stroke="#AC312A"/>
<path d="M325.472 3.61426V18.1521V28.9782L314.711 44.7534V56.1981L332.645 70.736L340.797 97.3372L346.014 120.845V148.065L340.797 153.633L346.014 163.84L352.209 177.141H360.035L373.404 189.823L390.034 195.391L400.794 204.361L422.315 189.823L523.723 244.263V238.076H538.396L532.527 112.494L528.94 101.049V90.2229V79.7062" stroke="#AC312A"/>
<path d="M152.979 370.773L159.826 375.104L162.435 379.743L167.652 381.29L171.565 378.197H181.347L186.564 384.383L188.847 395.209V403.87L185.26 410.366L183.304 418.099L181.347 425.522L183.304 432.637L186.564 439.442V444.7" stroke="#AC312A"/>
<path d="M347.969 483.055H377.968H385.467H394.271H408.618L427.531 490.479L429.161 480.581" stroke="#AC312A"/>
<path d="M367.86 483.983V499.758H344.057" stroke="#AC312A"/>
<path d="M229.181 84.3525C226.272 81.259 222.327 79.521 218.214 79.521C214.101 79.521 210.156 81.259 207.247 84.3525C204.338 87.4461 202.704 91.6419 202.704 96.0169C202.704 100.392 204.338 104.588 207.247 107.681L216.88 117.946C217.049 118.128 217.252 118.273 217.474 118.371C217.697 118.47 217.936 118.521 218.177 118.521C218.419 118.521 218.657 118.47 218.88 118.371C219.103 118.273 219.305 118.128 219.475 117.946L229.181 107.584C232.077 104.503 233.704 100.325 233.704 95.9683C233.704 91.6116 232.077 87.4333 229.181 84.3525ZM226.567 104.804L218.214 113.727L209.861 104.804C208.211 103.047 207.087 100.81 206.632 98.3737C206.178 95.9379 206.412 93.4133 207.306 91.1192C208.2 88.8251 209.713 86.8644 211.655 85.4849C213.596 84.1055 215.879 83.3692 218.214 83.3692C220.549 83.3692 222.831 84.1055 224.773 85.4849C226.714 86.8644 228.228 88.8251 229.122 91.1192C230.016 93.4133 230.25 95.9379 229.795 98.3737C229.341 100.81 228.217 103.047 226.567 104.804ZM204.704 95.9683C203.229 97.5426 207.247 99.6845 207.247 101.907C207.247 104.13 208.385 106.107 209.861 107.681C210.957 108.849 215.954 114.753 217.474 115.08C218.995 115.407 224.746 109.05 226.183 108.427C227.62 107.804 229.832 101.838 230.704 100.473C231.577 99.1084 230.688 94.5127 230.704 92.8625C230.713 91.7606 231.1 90.1747 230.704 89.1563C230.309 88.1379 227.941 86.2593 227.204 85.4849C226.48 84.6967 226.792 80.5562 221.563 83.3692C220.61 82.9375 212.241 83.8889 211.204 83.8798C210.168 83.8708 207.164 90.3471 206.204 90.7622C205.244 91.1772 205.441 95.1929 204.704 95.9683ZM221.303 99.1469C220.61 99.8948 219.695 100.364 218.713 100.473C217.731 100.583 216.744 100.326 215.921 99.7474C215.097 99.1687 214.488 98.3036 214.198 97.3002C213.908 96.2967 213.954 95.2172 214.33 94.2462C214.705 93.2752 215.386 92.4729 216.255 91.9766C217.125 91.4804 218.13 91.3209 219.098 91.5254C220.067 91.7299 220.938 92.2858 221.563 93.098C222.189 93.9101 222.53 94.9282 222.527 95.978C222.501 97.178 222.028 98.3178 221.211 99.1469H221.303Z" fill="#AC312A"/>
<path d="M574.822 161.241C571.919 158.166 567.982 156.438 563.877 156.438C559.772 156.438 555.835 158.166 552.932 161.241C550.029 164.316 548.398 168.488 548.398 172.837C548.398 177.186 550.029 181.358 552.932 184.433L562.545 194.638C562.715 194.819 562.917 194.963 563.139 195.061C563.361 195.159 563.6 195.209 563.841 195.209C564.081 195.209 564.32 195.159 564.542 195.061C564.764 194.963 564.966 194.819 565.136 194.638L574.822 184.337C577.713 181.274 579.337 177.12 579.337 172.789C579.337 168.458 577.713 164.304 574.822 161.241ZM572.214 181.573L563.877 190.444L555.541 181.573C553.894 179.826 552.772 177.602 552.319 175.18C551.865 172.758 552.099 170.249 552.991 167.968C553.883 165.687 555.394 163.738 557.331 162.367C559.269 160.995 561.547 160.263 563.877 160.263C566.207 160.263 568.485 160.995 570.423 162.367C572.361 163.738 573.871 165.687 574.763 167.968C575.656 170.249 575.89 172.758 575.436 175.18C574.982 177.602 573.861 179.826 572.214 181.573ZM550.394 172.789C548.922 174.354 552.932 176.483 552.932 178.693C552.932 180.903 554.068 182.868 555.541 184.433C556.635 185.594 561.621 191.463 563.139 191.788C564.657 192.114 570.397 185.794 571.831 185.174C573.265 184.555 575.472 178.624 576.343 177.267C577.214 175.91 576.327 171.342 576.343 169.701C576.351 168.606 576.738 167.029 576.343 166.017C575.948 165.004 573.585 163.137 572.85 162.367C572.127 161.583 572.438 157.467 567.22 160.263C566.268 159.834 557.916 160.78 556.882 160.771C555.847 160.762 552.85 167.2 551.891 167.613C550.933 168.026 551.129 172.018 550.394 172.789ZM566.96 175.949C566.269 176.692 565.355 177.158 564.375 177.267C563.396 177.376 562.411 177.121 561.589 176.546C560.767 175.97 560.159 175.11 559.869 174.113C559.58 173.115 559.626 172.042 560.001 171.077C560.375 170.111 561.055 169.314 561.923 168.82C562.791 168.327 563.794 168.169 564.76 168.372C565.726 168.575 566.596 169.128 567.22 169.935C567.844 170.743 568.184 171.755 568.182 172.798C568.156 173.991 567.683 175.124 566.869 175.949H566.96Z" fill="#AC312A"/>
<path d="M67.1807 283.353C64.2722 280.259 60.3271 278.521 56.2138 278.521C52.1005 278.521 48.1555 280.259 45.247 283.353C42.3384 286.446 40.7043 290.642 40.7043 295.017C40.7043 299.392 42.3384 303.588 45.247 306.681L54.8795 316.946C55.0495 317.128 55.2516 317.273 55.4743 317.371C55.6971 317.47 55.936 317.521 56.1773 317.521C56.4186 317.521 56.6575 317.47 56.8802 317.371C57.1029 317.273 57.3051 317.128 57.475 316.946L67.1807 306.584C70.0771 303.503 71.7043 299.325 71.7043 294.968C71.7043 290.612 70.0771 286.433 67.1807 283.353ZM64.5669 303.804L56.2138 312.727L47.8607 303.804C46.2105 302.047 45.087 299.81 44.6323 297.374C44.1775 294.938 44.412 292.413 45.306 290.119C46.2 287.825 47.7135 285.864 49.655 284.485C51.5965 283.105 53.879 282.369 56.2138 282.369C58.5487 282.369 60.8312 283.105 62.7727 284.485C64.7142 285.864 66.2277 287.825 67.1217 290.119C68.0157 292.413 68.2501 294.938 67.7954 297.374C67.3407 299.81 66.2172 302.047 64.5669 303.804ZM42.7043 294.968C41.2288 296.543 45.247 298.685 45.247 300.907C45.247 303.13 46.3852 305.107 47.8607 306.681C48.957 307.849 53.9535 313.753 55.4743 314.08C56.9952 314.407 62.7462 308.05 64.1831 307.427C65.62 306.804 67.8319 300.838 68.7043 299.473C69.5767 298.108 68.6881 293.513 68.7043 291.862C68.7126 290.761 69.0999 289.175 68.7044 288.156C68.3088 287.138 65.9414 285.259 65.2043 284.485C64.4799 283.697 64.7919 279.556 59.5633 282.369C58.6098 281.937 50.2406 282.889 49.2043 282.88C48.1681 282.871 45.1643 289.347 44.2043 289.762C43.2443 290.177 43.4408 294.193 42.7043 294.968ZM59.3028 298.147C58.6102 298.895 57.6947 299.364 56.7131 299.473C55.7314 299.583 54.7444 299.326 53.9209 298.747C53.0973 298.169 52.4884 297.304 52.1981 296.3C51.9079 295.297 51.9544 294.217 52.3297 293.246C52.7049 292.275 53.3857 291.473 54.2555 290.977C55.1253 290.48 56.1302 290.321 57.0984 290.525C58.0665 290.73 58.9379 291.286 59.5633 292.098C60.1888 292.91 60.5296 293.928 60.5275 294.978C60.5009 296.178 60.0275 297.318 59.2115 298.147H59.3028Z" fill="#AC312A"/>
<path d="M329.181 363.229C326.272 360.214 322.327 358.521 318.214 358.521C314.101 358.521 310.156 360.214 307.247 363.229C304.338 366.243 302.704 370.331 302.704 374.594C302.704 378.857 304.338 382.945 307.247 385.959L316.88 395.961C317.049 396.138 317.252 396.279 317.474 396.375C317.697 396.471 317.936 396.521 318.177 396.521C318.419 396.521 318.657 396.471 318.88 396.375C319.103 396.279 319.305 396.138 319.475 395.961L329.181 385.865C332.077 382.863 333.704 378.792 333.704 374.547C333.704 370.302 332.077 366.23 329.181 363.229ZM326.567 383.156L318.214 391.85L309.861 383.156C308.211 381.444 307.087 379.264 306.632 376.89C306.178 374.517 306.412 372.057 307.306 369.822C308.2 367.587 309.713 365.676 311.655 364.332C313.596 362.988 315.879 362.271 318.214 362.271C320.549 362.271 322.831 362.988 324.773 364.332C326.714 365.676 328.228 367.587 329.122 369.822C330.016 372.057 330.25 374.517 329.795 376.89C329.341 379.264 328.217 381.444 326.567 383.156ZM304.704 374.547C303.229 376.08 307.247 378.168 307.247 380.333C307.247 382.499 308.385 384.425 309.861 385.959C310.957 387.097 315.954 392.849 317.474 393.168C318.995 393.487 324.746 387.293 326.183 386.686C327.62 386.079 329.832 380.266 330.704 378.936C331.577 377.606 330.688 373.128 330.704 371.52C330.713 370.447 331.1 368.902 330.704 367.909C330.309 366.917 327.941 365.087 327.204 364.332C326.48 363.564 326.792 359.53 321.563 362.271C320.61 361.85 312.241 362.777 311.204 362.768C310.168 362.759 307.164 369.07 306.204 369.474C305.244 369.878 305.441 373.791 304.704 374.547ZM321.303 377.644C320.61 378.372 319.695 378.829 318.713 378.936C317.731 379.043 316.744 378.793 315.921 378.229C315.097 377.665 314.488 376.822 314.198 375.844C313.908 374.867 313.954 373.815 314.33 372.869C314.705 371.922 315.386 371.141 316.255 370.657C317.125 370.174 318.13 370.018 319.098 370.218C320.067 370.417 320.938 370.958 321.563 371.75C322.189 372.541 322.53 373.533 322.527 374.556C322.501 375.725 322.028 376.836 321.211 377.644H321.303Z" fill="#AC312A"/>
<path d="M718.327 395.353C715.512 392.259 711.694 390.521 707.714 390.521C703.733 390.521 699.915 392.259 697.1 395.353C694.286 398.446 692.704 402.642 692.704 407.017C692.704 411.392 694.286 415.588 697.1 418.681L706.422 428.946C706.587 429.128 706.782 429.273 706.998 429.371C707.213 429.47 707.445 429.521 707.678 429.521C707.912 429.521 708.143 429.47 708.358 429.371C708.574 429.273 708.77 429.128 708.934 428.946L718.327 418.584C721.13 415.503 722.704 411.325 722.704 406.968C722.704 402.612 721.13 398.433 718.327 395.353ZM715.797 415.804L707.714 424.727L699.63 415.804C698.033 414.047 696.946 411.81 696.506 409.374C696.066 406.938 696.292 404.413 697.158 402.119C698.023 399.825 699.487 397.864 701.366 396.485C703.245 395.105 705.454 394.369 707.714 394.369C709.973 394.369 712.182 395.105 714.061 396.485C715.94 397.864 717.404 399.825 718.269 402.119C719.135 404.413 719.362 406.938 718.922 409.374C718.481 411.81 717.394 414.047 715.797 415.804ZM694.64 406.968C693.212 408.543 697.1 410.685 697.1 412.907C697.1 415.13 698.202 417.107 699.63 418.681C700.691 419.849 705.526 425.753 706.998 426.08C708.47 426.407 714.035 420.05 715.426 419.427C716.816 418.804 718.957 412.838 719.801 411.473C720.645 410.108 719.785 405.513 719.801 403.862C719.809 402.761 720.184 401.175 719.801 400.156C719.418 399.138 717.127 397.259 716.414 396.485C715.713 395.697 716.015 391.556 710.955 394.369C710.032 393.937 701.933 394.889 700.93 394.88C699.927 394.871 697.02 401.347 696.091 401.762C695.162 402.177 695.353 406.193 694.64 406.968ZM710.703 410.147C710.033 410.895 709.147 411.364 708.197 411.473C707.247 411.583 706.291 411.326 705.495 410.747C704.698 410.169 704.108 409.304 703.827 408.3C703.547 407.297 703.591 406.217 703.955 405.246C704.318 404.275 704.977 403.473 705.818 402.977C706.66 402.48 707.633 402.321 708.57 402.525C709.506 402.73 710.35 403.286 710.955 404.098C711.56 404.91 711.89 405.928 711.888 406.978C711.862 408.178 711.404 409.318 710.614 410.147H710.703Z" fill="#AC312A"/>
<path d="M470.181 658.353C467.272 655.259 463.327 653.521 459.214 653.521C455.101 653.521 451.156 655.259 448.247 658.353C445.338 661.446 443.704 665.642 443.704 670.017C443.704 674.392 445.338 678.588 448.247 681.681L457.88 691.946C458.049 692.128 458.252 692.273 458.474 692.371C458.697 692.47 458.936 692.521 459.177 692.521C459.419 692.521 459.657 692.47 459.88 692.371C460.103 692.273 460.305 692.128 460.475 691.946L470.181 681.584C473.077 678.503 474.704 674.325 474.704 669.968C474.704 665.612 473.077 661.433 470.181 658.353ZM467.567 678.804L459.214 687.727L450.861 678.804C449.211 677.047 448.087 674.81 447.632 672.374C447.178 669.938 447.412 667.413 448.306 665.119C449.2 662.825 450.713 660.864 452.655 659.485C454.596 658.105 456.879 657.369 459.214 657.369C461.549 657.369 463.831 658.105 465.773 659.485C467.714 660.864 469.228 662.825 470.122 665.119C471.016 667.413 471.25 669.938 470.795 672.374C470.341 674.81 469.217 677.047 467.567 678.804ZM445.704 669.968C444.229 671.543 448.247 673.685 448.247 675.907C448.247 678.13 449.385 680.107 450.861 681.681C451.957 682.849 456.954 688.753 458.474 689.08C459.995 689.407 465.746 683.05 467.183 682.427C468.62 681.804 470.832 675.838 471.704 674.473C472.577 673.108 471.688 668.513 471.704 666.862C471.713 665.761 472.1 664.175 471.704 663.156C471.309 662.138 468.941 660.259 468.204 659.485C467.48 658.697 467.792 654.556 462.563 657.369C461.61 656.937 453.241 657.889 452.204 657.88C451.168 657.871 448.164 664.347 447.204 664.762C446.244 665.177 446.441 669.193 445.704 669.968ZM462.303 673.147C461.61 673.895 460.695 674.364 459.713 674.473C458.731 674.583 457.744 674.326 456.921 673.747C456.097 673.169 455.488 672.304 455.198 671.3C454.908 670.297 454.954 669.217 455.33 668.246C455.705 667.275 456.386 666.473 457.255 665.977C458.125 665.48 459.13 665.321 460.098 665.525C461.067 665.73 461.938 666.286 462.563 667.098C463.189 667.91 463.53 668.928 463.527 669.978C463.501 671.178 463.028 672.318 462.211 673.147H462.303Z" fill="#AC312A"/>
<path d="M624.181 773.229C621.272 770.214 617.327 768.521 613.214 768.521C609.101 768.521 605.156 770.214 602.247 773.229C599.338 776.243 597.704 780.331 597.704 784.594C597.704 788.857 599.338 792.945 602.247 795.959L611.88 805.961C612.049 806.138 612.252 806.279 612.474 806.375C612.697 806.471 612.936 806.521 613.177 806.521C613.419 806.521 613.657 806.471 613.88 806.375C614.103 806.279 614.305 806.138 614.475 805.961L624.181 795.865C627.077 792.863 628.704 788.792 628.704 784.547C628.704 780.302 627.077 776.23 624.181 773.229ZM621.567 793.156L613.214 801.85L604.861 793.156C603.211 791.444 602.087 789.264 601.632 786.89C601.178 784.517 601.412 782.057 602.306 779.822C603.2 777.587 604.713 775.676 606.655 774.332C608.596 772.988 610.879 772.271 613.214 772.271C615.549 772.271 617.831 772.988 619.773 774.332C621.714 775.676 623.228 777.587 624.122 779.822C625.016 782.057 625.25 784.517 624.795 786.89C624.341 789.264 623.217 791.444 621.567 793.156ZM599.704 784.547C598.229 786.08 602.247 788.168 602.247 790.333C602.247 792.499 603.385 794.425 604.861 795.959C605.957 797.097 610.954 802.849 612.474 803.168C613.995 803.487 619.746 797.293 621.183 796.686C622.62 796.079 624.832 790.266 625.704 788.936C626.577 787.606 625.688 783.128 625.704 781.52C625.713 780.447 626.1 778.902 625.704 777.909C625.309 776.917 622.941 775.087 622.204 774.332C621.48 773.564 621.792 769.53 616.563 772.271C615.61 771.85 607.241 772.777 606.204 772.768C605.168 772.759 602.164 779.07 601.204 779.474C600.244 779.878 600.441 783.791 599.704 784.547ZM616.303 787.644C615.61 788.372 614.695 788.829 613.713 788.936C612.731 789.043 611.744 788.793 610.921 788.229C610.097 787.665 609.488 786.822 609.198 785.844C608.908 784.867 608.954 783.815 609.33 782.869C609.705 781.922 610.386 781.141 611.255 780.657C612.125 780.174 613.13 780.018 614.098 780.218C615.067 780.417 615.938 780.958 616.563 781.75C617.189 782.541 617.53 783.533 617.527 784.556C617.501 785.725 617.028 786.836 616.211 787.644H616.303Z" fill="#AC312A"/>
</svg>
