<svg width="75" height="67" viewBox="0 0 75 67" fill="none" xmlns="http://www.w3.org/2000/svg">
<path d="M11.6028 21.558C15.1015 18.8393 18.004 20.7143 21.8778 25.1993C22.3128 25.7055 22.8978 25.113 23.2315 24.8243C23.5653 24.5355 28.6728 19.9305 28.924 19.7205C29.1715 19.4993 29.4715 19.0868 29.0778 18.6255C28.1292 17.4524 27.2003 16.2635 26.2915 15.0593C19.5115 6.19053 44.839 0.175525 40.9503 0.0817748C38.9703 0.0292748 31.0278 -0.064475 29.839 0.066775C25.0278 0.573025 18.9865 5.06927 15.9453 7.16553C11.9665 9.88803 10.4815 11.4855 10.2378 11.7068C9.11279 12.6893 10.0578 14.958 8.01779 16.7468C5.86154 18.633 4.51529 17.2043 3.26654 18.2993C2.64779 18.8468 0.915289 20.1443 0.420289 20.5755C-0.0784611 21.0143 -0.168461 21.753 0.341539 22.3418C0.341539 22.3418 5.08154 27.5768 5.47904 28.0418C5.87279 28.4993 6.94529 28.8968 7.60529 28.308C8.26904 27.723 9.97529 26.2343 10.2603 25.9718C10.5528 25.7243 10.0728 22.743 11.6028 21.558ZM33.0078 23.4968C32.5578 22.9755 31.999 22.9605 31.519 23.388L26.1415 28.083C25.9348 28.2719 25.8088 28.5333 25.79 28.8127C25.7711 29.0921 25.8608 29.3681 26.0403 29.583L57.1428 64.9793C57.8703 65.8155 59.1303 65.9018 59.959 65.178L63.5965 62.1293C63.9969 61.7767 64.242 61.2804 64.2785 60.7481C64.315 60.2159 64.14 59.6907 63.7915 59.2868L33.0078 23.4968ZM74.479 8.43303C74.2015 6.58053 73.2415 6.96677 72.7428 7.75052C72.244 8.54177 70.039 11.883 69.1315 13.398C68.2315 14.898 66.0115 17.8643 61.879 14.9355C57.574 11.8943 59.0703 9.77178 59.8203 8.34303C60.574 6.90677 62.8878 2.87928 63.2215 2.38053C63.5553 1.87428 63.1653 0.404275 61.8303 1.01927C60.4915 1.63427 52.369 4.86303 51.244 9.49428C50.0928 14.2043 52.2078 18.4155 48.0565 22.5968L43.0203 27.8468L48.079 33.7193L54.2815 27.8318C55.759 26.3468 58.9165 24.903 61.774 25.5555C67.8978 26.9393 71.239 24.6405 73.2528 20.838C75.0603 17.4405 74.7603 10.2855 74.479 8.43303ZM10.1178 59.6693C9.7445 60.0481 9.53524 60.5587 9.53524 61.0905C9.53524 61.6224 9.7445 62.1329 10.1178 62.5118L13.684 65.9993C14.464 66.783 15.7015 66.453 16.4815 65.6693L34.8828 47.5793L29.2465 41.1518L10.1178 59.6693Z" fill="white"/>
</svg>
