<svg width="73" height="78" viewBox="0 0 73 78" fill="none" xmlns="http://www.w3.org/2000/svg">
<path d="M16.954 38.1815C17.2502 38.1815 17.5806 38.2271 17.9452 38.3183C18.3098 38.4094 18.6744 38.5347 19.039 38.6942C19.4035 38.8537 19.7681 39.0019 20.1327 39.1386C20.4973 39.2753 20.8277 39.412 21.1239 39.5487L20.577 39.6171C20.3948 39.6399 20.2011 39.6513 19.996 39.6513C19.6086 39.6513 19.2554 39.5943 18.9364 39.4804C18.6174 39.3664 18.3212 39.2183 18.0477 39.036C17.7743 38.8537 17.5009 38.717 17.2274 38.6259C16.954 38.5347 16.7033 38.4664 16.4755 38.4208C16.2476 38.4208 16.0425 38.4664 15.8602 38.5575C15.678 38.6487 15.4957 38.7512 15.3134 38.8651C15.3134 38.774 15.2336 38.7284 15.0741 38.7284C15.2336 38.5689 15.5298 38.4436 15.9628 38.3524C16.3957 38.2613 16.7261 38.2043 16.954 38.1815ZM21.5683 39.7196C22.5025 39.7196 23.357 39.8791 24.1317 40.1981C23.8127 40.3121 23.4937 40.4032 23.1747 40.4716C22.8557 40.5399 22.5253 40.5855 22.1835 40.6083C21.7278 40.6083 21.3176 40.5627 20.953 40.4716C21.067 40.2893 21.1809 40.1754 21.2948 40.1298C21.4088 40.0842 21.4999 39.9475 21.5683 39.7196ZM35.0009 8.00088C38.2138 8.00088 41.3013 8.42243 44.2636 9.26552C47.2258 10.1086 50.0058 11.2821 52.6034 12.786C55.2011 14.2899 57.5709 16.1242 59.7128 18.289C61.8547 20.4537 63.6776 22.8121 65.1815 25.3642C66.6854 27.9162 67.8703 30.6962 68.7362 33.704C69.6021 36.7118 70.0237 39.8108 70.0009 43.0009C70.0009 46.2138 69.5793 49.3013 68.7362 52.2636C67.8931 55.2258 66.7196 58.0058 65.2157 60.6034C63.7118 63.2011 61.8775 65.5709 59.7128 67.7128C57.5481 69.8547 55.1897 71.6776 52.6376 73.1815C50.0855 74.6854 47.3056 75.8703 44.2977 76.7362C41.2899 77.6021 38.191 78.0237 35.0009 78.0009C31.788 78.0009 28.7004 77.5793 25.7382 76.7362C22.7759 75.8931 19.996 74.7196 17.3983 73.2157C14.8007 71.7118 12.4309 69.8775 10.289 67.7128C8.14703 65.5481 6.32412 63.1897 4.82021 60.6376C3.31631 58.0855 2.13141 55.3056 1.26552 52.2977C0.399639 49.2899 -0.0219101 46.191 0.000876402 43.0009C0.000876402 39.788 0.422426 36.7004 1.26552 33.7382C2.10862 30.7759 3.28213 27.996 4.78603 25.3983C6.28994 22.8007 8.12425 20.4309 10.289 18.289C12.4537 16.147 14.8121 14.3241 17.3642 12.8202C19.9162 11.3163 22.6962 10.1314 25.704 9.26552C28.7118 8.39964 31.8108 7.97809 35.0009 8.00088ZM61.0458 26.9706C60.7268 26.4693 60.4078 25.9908 60.0888 25.5351C59.7697 25.0793 59.4393 24.6122 59.0975 24.1337C59.052 24.3388 58.995 24.4869 58.9267 24.578C58.8583 24.6692 58.8127 24.8742 58.7899 25.1933C58.7899 25.3983 58.8697 25.592 59.0292 25.7743C59.1887 25.9566 59.3938 26.1389 59.6444 26.3212C59.8951 26.5035 60.1457 26.6402 60.3964 26.7313C60.647 26.8225 60.8635 26.9022 61.0458 26.9706ZM58.6874 23.621C58.6874 23.8033 58.6532 23.9286 58.5849 23.997H58.7899C58.8811 23.997 58.9494 24.0084 58.995 24.0311L58.6874 23.621ZM35.0009 73.6259C37.5985 73.6259 40.1392 73.2955 42.6229 72.6347C45.1067 71.9739 47.4537 71.0396 49.664 69.8319C51.8742 68.6242 53.925 67.1431 55.8163 65.3886C57.7076 63.634 59.3596 61.6744 60.7724 59.5097C60.4761 58.8261 60.1913 58.1311 59.9179 57.4247C59.6444 56.7183 59.5077 55.9892 59.5077 55.2372C59.5077 54.4169 59.5419 53.7561 59.6102 53.2548C59.6786 52.7535 59.7584 52.3091 59.8495 51.9218C59.9406 51.5344 59.9862 51.204 59.9862 50.9306C59.9862 50.6571 59.952 50.3039 59.8837 49.871C59.8153 49.438 59.6216 48.9709 59.3026 48.4696C58.9836 47.9683 58.5621 47.2619 58.038 46.3505C58.0608 46.191 58.0949 45.9745 58.1405 45.7011C58.1861 45.4276 58.2317 45.1428 58.2772 44.8466C58.3228 44.5504 58.3342 44.2769 58.3114 44.0263C58.2886 43.7756 58.2317 43.5591 58.1405 43.3769C57.5481 43.3085 56.9328 43.1832 56.2948 43.0009C55.6568 42.8186 55.0871 42.5451 54.5858 42.1806L54.7909 42.0097C54.4947 42.078 54.1985 42.1692 53.9022 42.2831C53.606 42.397 53.3212 42.5224 53.0477 42.6591C52.7743 42.7958 52.4781 42.8869 52.1591 42.9325C51.8401 42.9781 51.5324 43.0237 51.2362 43.0692L50.6893 43.0009L50.7919 42.7616C50.4729 42.8528 50.1311 42.9667 49.7665 43.1034C49.4019 43.2401 49.0487 43.3085 48.7069 43.3085C48.4791 43.3085 48.1487 43.2287 47.7157 43.0692C47.2828 42.9097 46.8498 42.716 46.4169 42.4882C45.9839 42.2603 45.5966 42.0097 45.2548 41.7362C44.913 41.4628 44.7421 41.2007 44.7421 40.9501L44.8104 40.8476C44.6965 40.7108 44.5484 40.5855 44.3661 40.4716C44.1838 40.3576 44.0129 40.2437 43.8534 40.1298C43.6939 40.0158 43.5458 39.8905 43.4091 39.7538C43.2724 39.6171 43.2154 39.4576 43.2382 39.2753L43.6142 38.9677L42.828 38.8651L42.5546 37.8397C42.6002 37.9537 42.7027 37.9992 42.8622 37.9765C43.0217 37.9537 43.147 37.9081 43.2382 37.8397L42.0077 37.1903L42.8622 35.0028C42.5432 33.8179 42.4634 32.9065 42.6229 32.2685C42.7824 31.6304 43.0901 31.1063 43.5458 30.6962C44.0015 30.286 44.5028 29.8759 45.0497 29.4657C45.5966 29.0556 46.1548 28.4973 46.7245 27.7909L46.622 27.3808L48.8778 24.6464L49.3905 24.578C50.0285 24.578 50.7463 24.5552 51.5438 24.5097C52.3414 24.4641 53.1503 24.3843 53.9706 24.2704C54.7909 24.1565 55.5998 24.0425 56.3974 23.9286C57.1949 23.8147 57.924 23.6666 58.5849 23.4843C57.8557 22.6184 57.0923 21.7981 56.2948 21.0233C55.4973 20.2486 54.6428 19.508 53.7313 18.8017C53.4807 18.8928 53.1731 19.0181 52.8085 19.1776C52.4439 19.3371 52.0793 19.5422 51.7147 19.7929C51.3502 20.0435 51.0653 20.317 50.8602 20.6132C50.6552 20.9094 50.5298 21.217 50.4843 21.536L50.6893 22.1854C50.2792 22.8463 49.8235 23.2564 49.3222 23.4159C48.8209 23.5754 48.3082 23.6666 47.7841 23.6894C47.26 23.7121 46.7131 23.7121 46.1434 23.6894C45.5738 23.6666 45.0269 23.7691 44.5028 23.997L43.9559 22.8349L44.4686 20.8524L43.8876 19.9979L49.8007 18.1522C49.55 17.5142 49.1399 17.0357 48.5702 16.7167C48.0005 16.3977 47.3739 16.2382 46.6903 16.2382V15.8964L48.6044 15.5888C46.4852 14.5406 44.2864 13.7431 42.0077 13.1962C39.7291 12.6493 37.3935 12.3759 35.0009 12.3759C33.0185 12.3759 31.0588 12.5696 29.122 12.9569C27.1851 13.3443 25.3166 13.9026 23.5165 14.6317C21.7164 15.3609 19.9732 16.2724 18.287 17.3661C16.6008 18.4599 15.0627 19.6903 13.6727 21.0575C14.2652 21.0575 14.7209 21.2056 15.0399 21.5019C15.3589 21.7981 15.6552 22.1285 15.9286 22.4931C16.202 22.8576 16.4869 23.188 16.7831 23.4843C17.0793 23.7805 17.4781 23.94 17.9794 23.9628L18.5263 23.5526L18.4579 22.8007L19.5858 21.1942L18.6972 18.6649C18.8111 18.5966 18.982 18.4826 19.2099 18.3231C19.4377 18.1636 19.6314 18.0839 19.7909 18.0839C20.4745 18.0839 20.9986 18.1181 21.3632 18.1864C21.7278 18.2548 22.0468 18.3801 22.3202 18.5624C22.5936 18.7447 22.8329 19.0067 23.038 19.3485C23.2431 19.6903 23.5621 20.1233 23.995 20.6474L25.2255 19.6903C25.4533 19.7815 25.8179 19.9296 26.3192 20.1347C26.8205 20.3397 27.3332 20.5904 27.8573 20.8866C28.3814 21.1828 28.8257 21.4905 29.1903 21.8095C29.5549 22.1285 29.7486 22.4247 29.7714 22.6981C29.7714 23.0399 29.6461 23.3134 29.3954 23.5185C29.1448 23.7235 28.8144 23.8944 28.4042 24.0311C27.994 24.1679 27.5725 24.2704 27.1395 24.3388C26.7066 24.4071 26.2737 24.4983 25.8407 24.6122C25.4078 24.7261 25.0774 24.8401 24.8495 24.954C24.6216 25.0679 24.4849 25.2616 24.4394 25.5351L26.4218 26.1845C25.966 26.5718 25.4761 26.925 24.952 27.244C24.428 27.563 23.8811 27.8593 23.3114 28.1327L23.4481 28.7138L20.3036 29.9442V30.9013L20.0644 31.0038L20.2352 29.8075L20.0985 29.7733C19.939 29.7733 19.8479 29.8075 19.8251 29.8759C19.8023 29.9442 19.7909 30.024 19.7909 30.1151C19.7909 30.2063 19.8137 30.2974 19.8593 30.3886C19.9048 30.4797 19.9162 30.5481 19.8935 30.5936L19.4491 30.3544L19.5175 30.4911C19.5175 30.5595 19.5517 30.662 19.62 30.7987C19.6884 30.9354 19.7795 31.0608 19.8935 31.1747C20.0074 31.2886 20.0985 31.4026 20.1669 31.5165C20.2352 31.6304 20.2808 31.6874 20.3036 31.6874C20.3036 31.7558 20.258 31.8241 20.1669 31.8925C20.0757 31.9608 19.9618 32.0064 19.8251 32.0292C19.6884 32.052 19.5972 32.0862 19.5517 32.1317C19.5061 32.1773 19.5061 32.1887 19.5517 32.1659C19.8707 32.1659 19.939 32.1887 19.7567 32.2343C19.5744 32.2798 19.2896 32.3938 18.9022 32.5761C18.5149 32.7584 18.1617 33.0204 17.8427 33.3622C17.5237 33.704 17.3414 34.2053 17.2958 34.8661C17.2958 35.2535 17.3072 35.6295 17.33 35.994C17.3528 36.3586 17.3414 36.7346 17.2958 37.122C16.9768 36.2561 16.4983 35.5953 15.8602 35.1395C15.2222 34.6838 14.4475 34.456 13.536 34.456L12.0663 34.5927L12.7841 35.0712C12.3967 35.0256 11.9979 34.98 11.5878 34.9345C11.1776 34.8889 10.7561 34.8775 10.3231 34.9003C9.8902 34.9231 9.50283 35.0142 9.16103 35.1737C8.81923 35.3332 8.47744 35.5725 8.13564 35.8915L7.93056 37.4296C7.93056 38.1588 8.09007 38.7512 8.40908 39.2069C8.72809 39.6627 9.28636 39.9019 10.0839 39.9247C10.7675 39.9247 11.4397 39.8222 12.1005 39.6171C12.7613 39.412 13.4107 39.1727 14.0487 38.8993C13.8436 39.4006 13.6158 39.8791 13.3651 40.3349C13.1145 40.7906 12.9322 41.2919 12.8183 41.8388L13.2626 42.0438C13.8095 41.6793 14.3108 41.6223 14.7665 41.8729C15.2222 42.1236 15.6666 42.4882 16.0995 42.9667C16.5324 43.4452 16.9768 43.9351 17.4325 44.4364C17.8882 44.9377 18.3782 45.3023 18.9022 45.5302L17.7401 46.1454L15.0058 44.6073C15.0285 44.6529 15.0513 44.7554 15.0741 44.9149C15.0969 45.0744 15.0855 45.1086 15.0399 45.0175L13.8095 42.9325C13.0803 42.9097 12.3056 42.7958 11.4852 42.5907C10.6649 42.3856 9.83323 42.1122 8.99013 41.7704C8.14703 41.4286 7.3609 41.0526 6.63173 40.6425C5.90257 40.2323 5.23037 39.7994 4.61513 39.3436L4.37588 43.0009C4.37588 45.7808 4.75185 48.4924 5.50381 51.1356C6.25576 53.7789 7.31533 56.2626 8.68252 58.5868C10.0497 60.911 11.7245 63.0302 13.7069 64.9442C15.6894 66.8583 17.8882 68.4875 20.3036 69.8319C20.1897 69.3534 20.1783 68.8749 20.2694 68.3964C20.3606 67.9179 20.4745 67.4393 20.6112 66.9608C20.7479 66.4823 20.8961 66.0038 21.0556 65.5253C21.2151 65.0468 21.2948 64.5569 21.2948 64.0556C21.2948 63.3264 21.1809 62.563 20.953 61.7655C20.7252 60.968 20.4517 60.1591 20.1327 59.3388C19.8137 58.5184 19.4605 57.7095 19.0731 56.912C18.6858 56.1145 18.3782 55.3625 18.1503 54.6561C17.9224 53.9498 17.7401 53.289 17.6034 52.6737C17.4667 52.0585 17.5351 51.523 17.8085 51.0673L17.2958 50.828C17.4325 50.509 17.6148 50.2014 17.8427 49.9052C18.0705 49.6089 18.3098 49.3127 18.5604 49.0165C18.8111 48.7203 19.0048 48.4013 19.1415 48.0595C19.2782 47.7177 19.358 47.3759 19.3808 47.0341C19.3808 46.8062 19.3352 46.567 19.244 46.3163C19.1529 46.0657 19.0731 45.8264 19.0048 45.5985L19.7226 45.7694C20.1099 44.8808 20.634 44.2769 21.2948 43.9579C21.9556 43.6389 22.7873 43.468 23.7899 43.4452C23.9039 43.4452 24.1431 43.4908 24.5077 43.5819C24.8723 43.6731 25.2597 43.7984 25.6698 43.9579C26.08 44.1174 26.4673 44.2427 26.8319 44.3339C27.1965 44.425 27.4699 44.5162 27.6522 44.6073C27.6522 44.7668 27.7434 44.8694 27.9257 44.9149C28.108 44.9605 28.2105 45.0403 28.2333 45.1542L28.1649 45.4276C28.2333 45.4504 28.3928 45.5302 28.6435 45.6669C28.8941 45.8036 29.1675 45.9745 29.4638 46.1796C29.76 46.3847 30.022 46.567 30.2499 46.7265C30.4778 46.886 30.6373 47.0113 30.7284 47.1024C31.1386 47.1024 31.6968 47.2392 32.4032 47.5126C33.1096 47.786 33.8843 48.1278 34.7274 48.538C35.5705 48.9481 36.4022 49.438 37.2226 50.0077C38.0429 50.5774 38.8176 51.147 39.5468 51.7167C40.2759 52.2864 40.8342 52.856 41.2216 53.4257C41.6089 53.9953 41.8368 54.4966 41.9052 54.9296L40.7431 56.16C40.8342 57.3222 40.7545 58.2108 40.5038 58.8261C40.2532 59.4413 39.8658 59.954 39.3417 60.3642C38.8176 60.7743 38.2138 61.1161 37.5302 61.3895C36.8466 61.663 36.106 62.0504 35.3085 62.5517C35.3085 63.0074 35.1946 63.4973 34.9667 64.0214C34.7388 64.5455 34.454 65.0468 34.1122 65.5253C33.7704 66.0038 33.3602 66.4026 32.8817 66.7216C32.4032 67.0406 31.9247 67.2001 31.4462 67.2001L30.0106 66.1063C30.0562 66.1519 30.0562 66.2317 30.0106 66.3456C29.9651 66.4595 29.9081 66.4823 29.8397 66.414C30.0676 66.8469 30.1246 67.3482 30.0106 67.9179C29.8967 68.4875 29.703 69.0686 29.4296 69.661C29.1561 70.2535 28.8485 70.8117 28.5067 71.3358C28.1649 71.8599 27.8573 72.3043 27.5839 72.6688C28.8144 72.9878 30.0448 73.2271 31.2753 73.3866C32.5058 73.5461 33.7476 73.6259 35.0009 73.6259Z" fill="white"/>
<path d="M69.3519 3.59269C67.0063 1.29233 63.8248 -2.42382e-08 60.5077 0C57.1905 2.42382e-08 54.009 1.29233 51.6634 3.59269C49.3178 5.89304 48 9.013 48 12.2662C48 15.5194 49.3178 18.6394 51.6634 20.9397L59.4316 28.5724C59.5686 28.7079 59.7317 28.8154 59.9113 28.8888C60.0909 28.9622 60.2836 29 60.4782 29C60.6728 29 60.8654 28.9622 61.0451 28.8888C61.2247 28.8154 61.3877 28.7079 61.5247 28.5724L69.3519 20.8674C71.6877 18.5766 73 15.4697 73 12.2301C73 8.99042 71.6877 5.88347 69.3519 3.59269ZM67.244 18.8002L60.5077 25.4355L53.7713 18.8002C52.4405 17.4939 51.5344 15.8299 51.1677 14.0187C50.801 12.2074 50.9901 10.3302 51.711 8.62431C52.432 6.91842 53.6525 5.46045 55.2183 4.43471C56.784 3.40896 58.6247 2.86148 60.5077 2.86148C62.3906 2.86148 64.2313 3.40896 65.7971 4.43471C67.3628 5.46045 68.5833 6.91842 69.3043 8.62431C70.0253 10.3302 70.2143 12.2074 69.8476 14.0187C69.4809 15.8299 68.5749 17.4939 67.244 18.8002ZM49.6129 12.2301C48.4229 13.4007 51.6634 14.9934 51.6634 16.6463C51.6634 18.2993 52.5813 19.7691 53.7713 20.9397C54.6553 21.8082 58.6848 26.1979 59.9113 26.4412C61.1378 26.6845 65.7757 21.9573 66.9345 21.4941C68.0932 21.0309 69.8771 16.5947 70.5806 15.5798C71.2842 14.565 70.5676 11.1477 70.5806 9.92057C70.5873 9.10122 70.8997 7.92201 70.5807 7.16471C70.2616 6.40741 68.3524 5.01056 67.7581 4.43471C67.1739 3.84864 67.4254 0.769737 63.2089 2.86148C62.4399 2.54046 55.6905 3.24789 54.8548 3.24118C54.0192 3.23446 51.5968 8.0502 50.8226 8.35882C50.0484 8.66744 50.2068 11.6535 49.6129 12.2301ZM62.9988 14.5936C62.4402 15.1498 61.7019 15.4984 60.9103 15.5798C60.1186 15.6613 59.3226 15.4705 58.6585 15.0402C57.9943 14.6098 57.5033 13.9666 57.2692 13.2204C57.0351 12.4743 57.0726 11.6715 57.3753 10.9495C57.6779 10.2274 58.2269 9.63092 58.9283 9.26189C59.6298 8.89286 60.4402 8.77425 61.221 8.92634C62.0018 9.07843 62.7044 9.49177 63.2089 10.0957C63.7133 10.6996 63.9881 11.4566 63.9864 12.2373C63.9649 13.1296 63.5832 13.9771 62.9251 14.5936H62.9988Z" fill="#AC312A"/>
</svg>
