<svg width="83" height="66" viewBox="0 0 83 66" fill="none" xmlns="http://www.w3.org/2000/svg">
<path d="M42.4326 56.7591C53.6401 56.7591 62.7456 48.2808 63.1331 37.6884C62.7456 27.096 53.6401 18.6177 42.4326 18.6177C31.2251 18.6177 22.1184 27.096 21.7361 37.6884C22.1171 48.2808 31.2251 56.7591 42.4326 56.7591Z" fill="black"/>
<path d="M42.4345 9.56787C26.6885 9.56787 13.922 22.1581 13.922 37.6882C13.922 53.2171 26.6898 65.8086 42.4345 65.8086C58.1792 65.8086 70.9457 53.2171 70.9457 37.6882C70.9457 22.1581 58.1792 9.56787 42.4345 9.56787ZM42.4332 58.1394C30.9808 58.1394 21.6965 49.293 21.6965 38.3772C21.6965 38.1446 21.7289 37.9183 21.7367 37.6882C21.7289 37.4582 21.6965 37.2306 21.6965 36.9993C21.6965 26.0835 30.9821 17.2371 42.4332 17.2371C53.8843 17.2371 63.1686 26.0835 63.1686 36.9993C63.1686 37.2306 63.1414 37.4582 63.1349 37.6882C63.1427 37.9183 63.1686 38.1446 63.1686 38.3772C63.1673 49.293 53.8856 58.1394 42.4332 58.1394Z" fill="black"/>
<path d="M2.04929 0.555842C2.38129 -0.686275 3.03837 0.541322 3.03837 0.541322C3.03837 0.541322 3.268 13.3981 4.76199 13.538C6.25598 13.6779 5.10505 0.309002 6.87294 0.052923C8.51633 -0.196556 7.57844 13.7505 9.07519 13.6093C10.5664 13.4588 10.8182 0.607322 10.8182 0.607322C10.8182 0.607322 11.4822 -0.618955 11.81 0.613922C15.8604 15.8071 12.5833 22.0177 12.5833 22.0177C12.5833 22.0177 12.03 23.3232 10.7158 23.3298C10.5927 23.3232 10.6854 59.4132 10.6771 64.2655C10.6798 66.6243 3.0688 66.5517 3.07295 64.2035C3.07849 59.3511 3.2265 23.2651 3.10754 23.2677C1.78923 23.2677 1.23728 21.9636 1.23728 21.9636C1.23728 21.9636 -2.02736 15.7569 2.04929 0.555842ZM74.1744 0.00012319C75.8869 -0.0038368 82.9917 4.88411 83 23.0499C83.0083 28.8592 79.6869 28.8579 79.6925 32.4918C79.698 36.1192 79.7187 64.9717 79.7187 64.9717C79.7187 64.9717 76.0751 67.3569 73.3665 64.8608L73.3167 0.516242C73.3167 0.516242 73.3098 -0.00119681 74.1744 0.00012319Z" fill="#AC312A"/>
</svg>
