<svg width="63" height="68" viewBox="0 0 63 68" fill="none" xmlns="http://www.w3.org/2000/svg">
<path d="M51.1302 14.2551C49.5427 10.0417 46.827 6.43481 43.3303 3.89556C39.8336 1.35631 35.7147 0 31.5 0C27.2853 0 23.1664 1.35631 19.6697 3.89556C16.173 6.43481 13.4573 10.0417 11.8698 14.2551C8.33805 15.9453 5.33666 18.7053 3.22974 22.2001C1.12281 25.695 0.000891635 29.7745 6.85813e-05 33.9439C-0.0285677 45.4124 8.91455 55.3294 19.5272 55.6385C23.1098 55.729 26.6498 54.7859 29.7818 52.9065V66.1458C29.7818 66.6375 29.9628 67.1092 30.2851 67.4569C30.6073 67.8046 31.0443 68 31.5 68C31.9557 68 32.3927 67.8046 32.7149 67.4569C33.0372 67.1092 33.2182 66.6375 33.2182 66.1458V52.9065C36.1962 54.6943 39.5468 55.6344 42.9545 55.6385H43.4614C54.0855 55.3294 63.0286 45.4093 62.9999 33.9439C62.9991 29.7745 61.8772 25.695 59.7703 22.2001C57.6633 18.7053 54.6619 15.9453 51.1302 14.2551ZM43.3841 51.93C39.7413 52.0337 36.1684 50.8389 33.2182 48.5306V35.1523L46.0129 28.2483C46.4207 28.0287 46.731 27.6432 46.8755 27.1766C47.0199 26.7101 46.9867 26.2007 46.7832 25.7606C46.5797 25.3204 46.2224 24.9856 45.7901 24.8297C45.3578 24.6738 44.8858 24.7096 44.478 24.9293L33.2182 31.005V21.6442C33.2182 21.1524 33.0372 20.6808 32.7149 20.333C32.3927 19.9853 31.9557 19.79 31.5 19.79C31.0443 19.79 30.6073 19.9853 30.2851 20.333C29.9628 20.6808 29.7818 21.1524 29.7818 21.6442V38.4219L18.522 32.3462C18.1142 32.1265 17.6422 32.0907 17.2099 32.2466C16.7776 32.4025 16.4203 32.7374 16.2168 33.1775C16.0133 33.6176 15.9801 34.127 16.1245 34.5936C16.269 35.0601 16.5793 35.4456 16.9871 35.6653L29.7818 42.5692V48.5306C26.8295 50.8343 23.2581 52.0286 19.6159 51.93C10.8217 51.692 3.41352 43.4623 3.43642 33.9625C3.43625 30.3908 4.42859 26.9012 6.28522 23.9444C8.14185 20.9877 10.7774 18.6998 13.8514 17.3764C14.0746 17.279 14.2764 17.1322 14.4436 16.9453C14.6109 16.7584 14.7398 16.5357 14.8222 16.2916C16.0707 12.601 18.3404 9.41385 21.3236 7.16193C24.3068 4.91001 27.8594 3.70223 31.5 3.70223C35.1406 3.70223 38.6932 4.91001 41.6764 7.16193C44.6596 9.41385 46.9293 12.601 48.1778 16.2916C48.2602 16.5357 48.3891 16.7584 48.5564 16.9453C48.7236 17.1322 48.9254 17.279 49.1486 17.3764C52.2214 18.6989 54.8563 20.9853 56.7129 23.9402C58.5694 26.8952 59.5624 30.383 59.5636 33.9532C59.5865 43.4561 52.1783 51.6828 43.3841 51.93Z" fill="#AC312A"/>
</svg>
