<svg width="106" height="77" viewBox="0 0 106 77" fill="none" xmlns="http://www.w3.org/2000/svg">
<path d="M76.8735 0L72.7869 0.0451003L72.8822 9.15393C62.4902 12.2584 48.2416 13.7663 35.0871 14.6625C43.0553 37.1621 57.6444 55.269 70.9231 74.7485C75.6268 70.1555 82.5268 67.2747 89.8713 66.3337C85.149 62.102 81.5542 59.7986 76.5143 49.8738C83.6136 58.5398 88.4515 61.1995 94.1373 64.3633C94.8781 61.3035 96.1665 58.6059 98.3876 56.7281C100.355 55.0643 102.934 54.2384 106 54.3109C95.358 40.3455 82.9175 26.9577 76.9783 10.0438L76.8735 0ZM31.9424 2.72821L27.8563 2.78523C27.8563 2.78523 27.9131 7.07091 27.9834 11.4244C28.0189 13.6013 28.0572 15.7949 28.0945 17.4834C28.1081 18.0994 28.121 18.5537 28.134 19.0122C20.329 38.5789 12.4337 56.633 0 73.5628C7.63626 73.2387 15.0582 73.2817 22.3746 73.5532C27.429 58.9209 27.6749 42.0404 30.4631 26.3485C33.0551 42.3701 32.8619 58.934 38.0648 74.4468C47.8186 75.167 57.5193 76.1288 67.4316 77C54.7927 58.504 40.5933 40.771 32.2147 18.7285C32.2033 18.3121 32.192 17.9349 32.1801 17.3879C32.1434 15.7157 32.1045 13.5268 32.0694 11.3543C31.999 7.00922 31.9424 2.72821 31.9424 2.72821Z" fill="#AC312A"/>
</svg>
